<?xml version="1.0" encoding="utf-8"?>
<!-- Generator: Adobe Illustrator 16.0.4, SVG Export Plug-In . SVG Version: 6.00 Build 0)  -->
<!DOCTYPE svg PUBLIC "-//W3C//DTD SVG 1.1//EN" "http://www.w3.org/Graphics/SVG/1.1/DTD/svg11.dtd">
<!--width="357.1px" height="112.954px"-->
<svg version="1.1" id="Layer_1" xmlns="http://www.w3.org/2000/svg" xmlns:xlink="http://www.w3.org/1999/xlink" x="0px" y="0px"
	 width="100%" height="100%" viewBox="0 0 357.1 112.954" preserveAspectRatio="xMinYMin meet" enable-background="new 0 0 357.1 112.954" xml:space="preserve">
<g>
	<path d="M71.495,98.649c0-1.132,0.204-2.16,0.611-3.084s0.958-1.713,1.654-2.369c0.695-0.656,1.52-1.162,2.473-1.52
		s1.967-0.537,3.04-0.537s2.086,0.18,3.04,0.537s1.778,0.863,2.474,1.52c0.695,0.656,1.247,1.445,1.654,2.369
		s0.611,1.952,0.611,3.084c0,1.133-0.204,2.16-0.611,3.084s-0.958,1.715-1.654,2.369c-0.696,0.656-1.52,1.162-2.474,1.521
		c-0.954,0.357-1.967,0.536-3.04,0.536s-2.086-0.179-3.04-0.536c-0.954-0.358-1.778-0.864-2.473-1.521
		c-0.696-0.654-1.247-1.445-1.654-2.369S71.495,99.782,71.495,98.649z M75.071,98.649c0,0.557,0.094,1.094,0.283,1.609
		c0.188,0.518,0.466,0.974,0.834,1.371c0.367,0.397,0.809,0.715,1.326,0.953s1.103,0.357,1.758,0.357
		c0.656,0,1.242-0.119,1.758-0.357s0.958-0.556,1.326-0.953c0.367-0.397,0.646-0.854,0.834-1.371
		c0.188-0.516,0.283-1.053,0.283-1.609c0-0.556-0.095-1.092-0.283-1.609c-0.189-0.516-0.467-0.973-0.834-1.37
		c-0.368-0.397-0.81-0.716-1.326-0.954s-1.103-0.357-1.758-0.357c-0.655,0-1.242,0.119-1.758,0.357s-0.958,0.557-1.326,0.954
		c-0.368,0.397-0.646,0.854-0.834,1.37C75.166,97.557,75.071,98.093,75.071,98.649z"/>
	<path d="M90.448,83.272h3.576v22.529h-3.576V83.272z"/>
	<path d="M96.199,91.497h3.934l3.993,9.924h0.06l3.576-9.924h3.725l-6.765,17.374c-0.258,0.675-0.542,1.267-0.85,1.772
		c-0.308,0.508-0.67,0.934-1.087,1.282c-0.417,0.347-0.909,0.605-1.475,0.774c-0.566,0.169-1.247,0.254-2.042,0.254
		c-0.934,0-1.848-0.119-2.742-0.357l0.447-3.219c0.278,0.1,0.571,0.184,0.879,0.253s0.621,0.104,0.939,0.104
		c0.437,0,0.805-0.04,1.103-0.119c0.298-0.08,0.551-0.204,0.76-0.373c0.208-0.168,0.382-0.387,0.521-0.655
		c0.139-0.269,0.288-0.591,0.447-0.968l0.685-1.699L96.199,91.497z"/>
	<path d="M113.454,91.497h3.397v2.236h0.06c0.318-0.676,0.83-1.277,1.535-1.804c0.705-0.526,1.654-0.79,2.846-0.79
		c2.245,0,3.735,0.885,4.47,2.652c0.517-0.913,1.163-1.584,1.937-2.012c0.775-0.426,1.699-0.641,2.771-0.641
		c0.954,0,1.758,0.16,2.414,0.478c0.655,0.317,1.187,0.755,1.594,1.312c0.407,0.556,0.7,1.207,0.879,1.951
		c0.179,0.745,0.269,1.545,0.269,2.398v8.523h-3.576v-8.105c0-0.438-0.04-0.859-0.119-1.267c-0.08-0.407-0.219-0.765-0.417-1.073
		c-0.199-0.307-0.467-0.551-0.804-0.729c-0.338-0.179-0.775-0.269-1.312-0.269c-0.556,0-1.028,0.104-1.416,0.312
		c-0.387,0.209-0.705,0.488-0.954,0.835c-0.249,0.348-0.427,0.745-0.536,1.192c-0.109,0.447-0.164,0.898-0.164,1.355v7.748h-3.576
		v-8.523c0-0.894-0.189-1.604-0.566-2.13c-0.378-0.526-1.003-0.79-1.877-0.79c-0.596,0-1.098,0.1-1.505,0.299
		c-0.408,0.198-0.745,0.467-1.013,0.804c-0.268,0.339-0.462,0.726-0.581,1.163c-0.119,0.437-0.179,0.894-0.179,1.37v7.808h-3.576
		V91.497z"/>
	<path d="M139.529,91.497h3.397v2.146h0.06c0.517-0.874,1.211-1.51,2.086-1.907c0.874-0.397,1.817-0.597,2.831-0.597
		c1.092,0,2.075,0.194,2.95,0.582c0.874,0.387,1.619,0.919,2.234,1.594c0.616,0.676,1.083,1.471,1.401,2.385
		c0.317,0.914,0.477,1.896,0.477,2.949c0,1.054-0.169,2.037-0.507,2.951s-0.81,1.708-1.415,2.383
		c-0.606,0.676-1.337,1.207-2.19,1.595c-0.854,0.388-1.788,0.581-2.802,0.581c-0.675,0-1.271-0.07-1.788-0.209
		s-0.974-0.316-1.37-0.535c-0.397-0.219-0.735-0.452-1.014-0.701c-0.278-0.248-0.507-0.492-0.686-0.73h-0.089v8.613h-3.576V91.497z
		 M151.389,98.649c0-0.556-0.095-1.092-0.283-1.609c-0.188-0.516-0.467-0.973-0.834-1.37c-0.368-0.397-0.81-0.716-1.326-0.954
		s-1.103-0.357-1.759-0.357c-0.655,0-1.241,0.119-1.758,0.357s-0.959,0.557-1.326,0.954c-0.368,0.397-0.646,0.854-0.834,1.37
		c-0.189,0.518-0.283,1.054-0.283,1.609c0,0.557,0.094,1.094,0.283,1.609c0.188,0.518,0.466,0.974,0.834,1.371
		c0.367,0.397,0.81,0.715,1.326,0.953s1.103,0.357,1.758,0.357c0.656,0,1.242-0.119,1.759-0.357s0.958-0.556,1.326-0.953
		c0.367-0.397,0.646-0.854,0.834-1.371C151.294,99.743,151.389,99.206,151.389,98.649z"/>
	<path d="M157.855,86.639c0-0.575,0.214-1.076,0.641-1.504c0.428-0.428,0.969-0.641,1.624-0.641c0.656,0,1.207,0.203,1.654,0.61
		s0.671,0.919,0.671,1.534c0,0.617-0.224,1.129-0.671,1.535c-0.447,0.408-0.998,0.611-1.654,0.611c-0.655,0-1.196-0.213-1.624-0.641
		C158.069,87.717,157.855,87.216,157.855,86.639z M158.362,91.497h3.576v14.305h-3.576V91.497z"/>
	<path d="M174.99,103.834h-0.09c-0.516,0.814-1.172,1.406-1.967,1.773s-1.668,0.551-2.621,0.551c-0.657,0-1.297-0.09-1.923-0.268
		c-0.625-0.18-1.182-0.447-1.668-0.805c-0.487-0.357-0.88-0.805-1.178-1.342c-0.298-0.536-0.446-1.162-0.446-1.877
		c0-0.775,0.139-1.436,0.417-1.982c0.277-0.545,0.65-1.002,1.117-1.37c0.467-0.367,1.008-0.66,1.624-0.879
		c0.615-0.219,1.257-0.382,1.922-0.491c0.666-0.109,1.336-0.18,2.012-0.209c0.676-0.03,1.311-0.045,1.906-0.045h0.895v-0.387
		c0-0.895-0.309-1.565-0.924-2.012c-0.615-0.447-1.4-0.671-2.354-0.671c-0.756,0-1.461,0.134-2.117,0.402
		c-0.655,0.269-1.222,0.631-1.698,1.087l-1.877-1.877c0.794-0.814,1.723-1.4,2.786-1.758c1.062-0.357,2.16-0.537,3.292-0.537
		c1.014,0,1.867,0.115,2.562,0.344s1.271,0.521,1.729,0.879s0.809,0.77,1.059,1.236c0.248,0.467,0.426,0.939,0.535,1.416
		s0.174,0.938,0.195,1.385c0.02,0.447,0.029,0.84,0.029,1.178v8.225h-3.219V103.834z M174.781,99.394h-0.744
		c-0.498,0-1.053,0.021-1.67,0.06c-0.615,0.041-1.197,0.135-1.742,0.283c-0.547,0.148-1.009,0.368-1.386,0.656
		c-0.378,0.287-0.566,0.689-0.566,1.207c0,0.338,0.075,0.621,0.224,0.849c0.149,0.229,0.343,0.423,0.581,0.581
		c0.238,0.159,0.507,0.273,0.804,0.343c0.299,0.069,0.596,0.104,0.895,0.104c1.232,0,2.141-0.293,2.727-0.879
		s0.879-1.387,0.879-2.399V99.394z"/>
	<path d="M183.244,101.689h3.635l-2.531,7.867h-3.189L183.244,101.689z"/>
	<path d="M197.756,91.497h3.875l3.098,10.014h0.061l2.891-10.014h3.873l3.1,10.014h0.061l2.979-10.014h3.607l-4.857,14.305h-3.547
		l-3.396-9.774h-0.061l-3.01,9.774h-3.695L197.756,91.497z"/>
	<path d="M232.354,103.834h-0.09c-0.516,0.814-1.172,1.406-1.967,1.773s-1.668,0.551-2.621,0.551c-0.656,0-1.297-0.09-1.924-0.268
		c-0.625-0.18-1.182-0.447-1.668-0.805s-0.879-0.805-1.178-1.342c-0.297-0.536-0.445-1.162-0.445-1.877
		c0-0.775,0.139-1.436,0.416-1.982c0.277-0.545,0.65-1.002,1.117-1.37c0.467-0.367,1.008-0.66,1.625-0.879
		c0.615-0.219,1.256-0.382,1.922-0.491s1.336-0.18,2.012-0.209c0.676-0.03,1.311-0.045,1.906-0.045h0.895v-0.387
		c0-0.895-0.309-1.565-0.924-2.012c-0.615-0.447-1.4-0.671-2.354-0.671c-0.756,0-1.461,0.134-2.117,0.402
		c-0.654,0.269-1.221,0.631-1.697,1.087l-1.877-1.877c0.793-0.814,1.723-1.4,2.785-1.758s2.16-0.537,3.293-0.537
		c1.014,0,1.867,0.115,2.562,0.344s1.271,0.521,1.729,0.879s0.809,0.77,1.059,1.236c0.248,0.467,0.426,0.939,0.535,1.416
		s0.174,0.938,0.195,1.385c0.02,0.447,0.029,0.84,0.029,1.178v8.225h-3.219V103.834z M232.145,99.394H231.4
		c-0.498,0-1.053,0.021-1.67,0.06c-0.615,0.041-1.197,0.135-1.742,0.283c-0.547,0.148-1.01,0.368-1.387,0.656
		c-0.377,0.287-0.566,0.689-0.566,1.207c0,0.338,0.076,0.621,0.225,0.849c0.148,0.229,0.342,0.423,0.58,0.581
		c0.238,0.159,0.508,0.273,0.805,0.343c0.299,0.069,0.596,0.104,0.895,0.104c1.232,0,2.141-0.293,2.727-0.879
		s0.879-1.387,0.879-2.399V99.394z"/>
	<path d="M247.045,95.46c-0.695-0.974-1.629-1.46-2.803-1.46c-0.477,0-0.943,0.119-1.4,0.357s-0.686,0.626-0.686,1.162
		c0,0.438,0.189,0.756,0.566,0.953c0.377,0.199,0.855,0.369,1.432,0.508s1.195,0.283,1.861,0.432s1.287,0.377,1.863,0.686
		s1.053,0.73,1.43,1.266c0.377,0.537,0.566,1.272,0.566,2.206c0,0.854-0.184,1.575-0.551,2.16c-0.367,0.587-0.846,1.058-1.43,1.415
		c-0.588,0.358-1.248,0.617-1.982,0.775c-0.736,0.158-1.471,0.238-2.205,0.238c-1.113,0-2.137-0.159-3.07-0.477
		s-1.768-0.895-2.502-1.729l2.383-2.234c0.457,0.516,0.949,0.938,1.477,1.266c0.525,0.328,1.166,0.492,1.922,0.492
		c0.258,0,0.525-0.029,0.805-0.09c0.277-0.06,0.535-0.158,0.773-0.298c0.238-0.139,0.434-0.313,0.582-0.521s0.223-0.452,0.223-0.729
		c0-0.497-0.189-0.865-0.566-1.104s-0.854-0.432-1.43-0.58c-0.576-0.149-1.197-0.289-1.863-0.418
		c-0.664-0.129-1.285-0.338-1.861-0.625c-0.576-0.289-1.053-0.691-1.432-1.207c-0.377-0.518-0.564-1.232-0.564-2.146
		c0-0.794,0.162-1.484,0.49-2.07s0.76-1.068,1.297-1.445s1.152-0.656,1.848-0.835s1.4-0.269,2.115-0.269
		c0.955,0,1.898,0.164,2.832,0.492s1.688,0.889,2.264,1.684L247.045,95.46z"/>
	<path d="M256.223,93.494h0.059c0.279-0.596,0.77-1.137,1.475-1.624c0.705-0.486,1.615-0.73,2.729-0.73
		c0.953,0,1.762,0.16,2.428,0.478s1.207,0.735,1.625,1.251c0.416,0.518,0.715,1.113,0.893,1.789c0.18,0.675,0.27,1.381,0.27,2.115
		v9.029h-3.576V98.56c0-0.397-0.021-0.839-0.061-1.326s-0.145-0.943-0.312-1.371c-0.17-0.427-0.432-0.784-0.789-1.073
		c-0.357-0.287-0.846-0.432-1.461-0.432c-0.596,0-1.098,0.1-1.504,0.299c-0.408,0.198-0.746,0.467-1.014,0.804
		c-0.27,0.339-0.463,0.726-0.582,1.163c-0.119,0.437-0.178,0.894-0.178,1.37v7.808h-3.576V83.272h3.576V93.494z"/>
	<path d="M269.303,86.639c0-0.575,0.215-1.076,0.641-1.504c0.428-0.428,0.969-0.641,1.625-0.641s1.207,0.203,1.654,0.61
		s0.67,0.919,0.67,1.534c0,0.617-0.223,1.129-0.67,1.535c-0.447,0.408-0.998,0.611-1.654,0.611s-1.197-0.213-1.625-0.641
		C269.518,87.717,269.303,87.216,269.303,86.639z M269.811,91.497h3.576v14.305h-3.576V91.497z"/>
	<path d="M277.498,91.497h3.398v2.295h0.059c0.338-0.715,0.854-1.336,1.551-1.862c0.693-0.526,1.639-0.79,2.83-0.79
		c0.953,0,1.764,0.16,2.43,0.478c0.664,0.317,1.205,0.735,1.623,1.251c0.418,0.518,0.715,1.113,0.895,1.789
		c0.178,0.675,0.268,1.381,0.268,2.115v9.029h-3.576V98.56c0-0.397-0.02-0.839-0.059-1.326c-0.041-0.487-0.145-0.943-0.314-1.371
		c-0.168-0.427-0.432-0.784-0.789-1.073c-0.357-0.287-0.844-0.432-1.459-0.432c-0.598,0-1.1,0.1-1.506,0.299
		c-0.408,0.198-0.744,0.467-1.014,0.804c-0.268,0.339-0.461,0.726-0.58,1.163c-0.119,0.437-0.18,0.894-0.18,1.37v7.808h-3.576
		V91.497z"/>
	<path d="M309.324,91.497v13.023c0,1.291-0.16,2.459-0.477,3.502c-0.318,1.043-0.811,1.926-1.475,2.651
		c-0.666,0.726-1.506,1.286-2.52,1.685c-1.012,0.396-2.215,0.596-3.605,0.596c-1.33,0-2.592-0.17-3.785-0.507
		c-1.191-0.339-2.293-0.954-3.307-1.848l2.145-2.921c0.717,0.656,1.461,1.162,2.236,1.52c0.773,0.358,1.668,0.537,2.682,0.537
		c0.854,0,1.574-0.119,2.16-0.357s1.053-0.566,1.4-0.983s0.596-0.919,0.746-1.505c0.148-0.586,0.223-1.236,0.223-1.952v-1.043
		h-0.059c-0.518,0.696-1.203,1.218-2.057,1.564c-0.855,0.348-1.729,0.521-2.623,0.521c-1.072,0-2.047-0.194-2.92-0.581
		c-0.875-0.387-1.625-0.908-2.25-1.564s-1.107-1.43-1.445-2.324s-0.506-1.848-0.506-2.861c0-1.053,0.158-2.035,0.477-2.949
		c0.316-0.914,0.783-1.709,1.4-2.385c0.615-0.675,1.355-1.207,2.221-1.594c0.863-0.388,1.852-0.582,2.965-0.582
		c1.012,0,1.955,0.199,2.83,0.597s1.57,1.033,2.086,1.907h0.061v-2.146H309.324z M301.695,94.358c-0.637,0-1.211,0.104-1.729,0.312
		c-0.516,0.209-0.959,0.498-1.326,0.865s-0.654,0.814-0.863,1.34c-0.209,0.527-0.314,1.108-0.314,1.744
		c0,0.576,0.105,1.113,0.314,1.609s0.5,0.934,0.879,1.311c0.377,0.378,0.824,0.676,1.34,0.895c0.518,0.219,1.074,0.328,1.67,0.328
		c0.654,0,1.246-0.109,1.773-0.328c0.525-0.219,0.973-0.512,1.34-0.879s0.65-0.81,0.85-1.326s0.299-1.073,0.299-1.669
		c0-1.252-0.379-2.265-1.133-3.04C304.039,94.746,303.006,94.358,301.695,94.358z"/>
	<path d="M311.707,94.538v-3.041h2.951v-4.142h3.576v4.142h3.934v3.041h-3.934v6.258c0,0.715,0.133,1.281,0.402,1.698
		c0.268,0.417,0.799,0.626,1.594,0.626c0.318,0,0.666-0.035,1.043-0.104s0.676-0.184,0.895-0.343v3.01
		c-0.379,0.179-0.84,0.303-1.387,0.373c-0.547,0.068-1.027,0.104-1.445,0.104c-0.953,0-1.732-0.104-2.338-0.312
		c-0.607-0.209-1.084-0.526-1.432-0.953c-0.348-0.428-0.586-0.959-0.715-1.596c-0.129-0.635-0.193-1.37-0.193-2.205v-6.555H311.707z
		"/>
	<path d="M324.254,98.649c0-1.132,0.203-2.16,0.609-3.084c0.408-0.924,0.959-1.713,1.654-2.369s1.52-1.162,2.475-1.52
		c0.953-0.357,1.967-0.537,3.039-0.537s2.086,0.18,3.039,0.537s1.777,0.863,2.473,1.52s1.248,1.445,1.654,2.369
		c0.408,0.924,0.611,1.952,0.611,3.084c0,1.133-0.203,2.16-0.611,3.084c-0.406,0.924-0.959,1.715-1.654,2.369
		c-0.695,0.656-1.52,1.162-2.473,1.521c-0.953,0.357-1.967,0.536-3.039,0.536s-2.086-0.179-3.039-0.536
		c-0.955-0.358-1.779-0.864-2.475-1.521c-0.695-0.654-1.246-1.445-1.654-2.369C324.457,100.809,324.254,99.782,324.254,98.649z
		 M327.828,98.649c0,0.557,0.096,1.094,0.283,1.609c0.189,0.518,0.467,0.974,0.836,1.371c0.367,0.397,0.809,0.715,1.326,0.953
		c0.516,0.238,1.102,0.357,1.758,0.357c0.654,0,1.24-0.119,1.758-0.357c0.516-0.238,0.959-0.556,1.326-0.953
		s0.645-0.854,0.834-1.371c0.189-0.516,0.283-1.053,0.283-1.609c0-0.556-0.094-1.092-0.283-1.609
		c-0.189-0.516-0.467-0.973-0.834-1.37s-0.811-0.716-1.326-0.954c-0.518-0.238-1.104-0.357-1.758-0.357
		c-0.656,0-1.242,0.119-1.758,0.357c-0.518,0.238-0.959,0.557-1.326,0.954c-0.369,0.397-0.646,0.854-0.836,1.37
		C327.924,97.557,327.828,98.093,327.828,98.649z"/>
	<path d="M343.146,91.497h3.396v2.295h0.061c0.336-0.715,0.854-1.336,1.549-1.862s1.639-0.79,2.832-0.79
		c0.953,0,1.762,0.16,2.428,0.478s1.207,0.735,1.625,1.251c0.416,0.518,0.715,1.113,0.893,1.789c0.18,0.675,0.27,1.381,0.27,2.115
		v9.029h-3.576V98.56c0-0.397-0.021-0.839-0.061-1.326s-0.145-0.943-0.312-1.371c-0.17-0.427-0.432-0.784-0.789-1.073
		c-0.357-0.287-0.846-0.432-1.461-0.432c-0.596,0-1.098,0.1-1.504,0.299c-0.408,0.198-0.746,0.467-1.014,0.804
		c-0.27,0.339-0.463,0.726-0.582,1.163c-0.119,0.437-0.178,0.894-0.178,1.37v7.808h-3.576V91.497z"/>
</g>
<g>
	<path fill="#231F20" d="M80.678,16.674v-4.499h4.367V6.043h5.294v6.132h5.823v4.499h-5.823v9.265c0,2.117,0.617,3.441,2.956,3.441
		c0.926,0,2.206-0.177,2.867-0.662v4.455c-1.103,0.53-2.956,0.706-4.191,0.706c-5.603,0-6.926-2.514-6.926-7.499v-9.706H80.678z"/>
	<path fill="#231F20" d="M105.603,15.131h0.088c0.839-1.764,2.956-3.485,6.221-3.485c5.69,0,7.719,4.014,7.719,8.337V33.35h-5.293
		V22.63c0-2.338-0.176-6.22-3.882-6.22c-3.484,0-4.852,2.559-4.852,5.382V33.35h-5.293V0h5.293V15.131z"/>
	<path fill="#231F20" d="M127.66,24.616c0.353,3.131,2.735,5.028,5.691,5.028c2.647,0,4.367-1.234,5.691-2.867l3.793,2.867
		c-2.47,3.045-5.602,4.235-8.955,4.235c-6.396,0-11.513-4.456-11.513-11.116c0-6.662,5.117-11.117,11.513-11.117
		c5.911,0,9.926,4.147,9.926,11.514v1.456H127.66z M138.513,20.646c-0.044-3.088-2.073-5.029-5.382-5.029
		c-3.132,0-5.073,1.985-5.471,5.029H138.513z"/>
	<path fill="#231F20" d="M161.628,24.616c0.354,3.131,2.735,5.028,5.691,5.028c2.646,0,4.367-1.234,5.689-2.867l3.795,2.867
		c-2.47,3.045-5.603,4.235-8.955,4.235c-6.397,0-11.514-4.456-11.514-11.116c0-6.662,5.117-11.117,11.514-11.117
		c5.911,0,9.926,4.147,9.926,11.514v1.456H161.628z M172.479,20.646c-0.043-3.088-2.073-5.029-5.381-5.029
		c-3.133,0-5.073,1.985-5.47,5.029H172.479z"/>
	<path fill="#231F20" d="M177.643,12.175h5.778l5.647,14.822h0.087l5.69-14.822h5.427l-8.337,21.175h-5.647L177.643,12.175z"/>
	<path fill="#231F20" d="M205.39,24.616c0.354,3.131,2.735,5.028,5.691,5.028c2.646,0,4.368-1.234,5.691-2.867l3.792,2.867
		c-2.468,3.045-5.601,4.235-8.953,4.235c-6.396,0-11.515-4.456-11.515-11.116c0-6.662,5.119-11.117,11.515-11.117
		c5.912,0,9.924,4.147,9.924,11.514v1.456H205.39z M216.242,20.646c-0.043-3.088-2.073-5.029-5.381-5.029
		c-3.133,0-5.073,1.985-5.472,5.029H216.242z"/>
	<path fill="#231F20" d="M224.934,12.175h5.293v3.353h0.088c1.147-2.426,3.485-3.882,6.265-3.882c0.661,0,1.28,0.133,1.897,0.309
		v5.117c-0.883-0.22-1.721-0.397-2.56-0.397c-4.983,0-5.69,4.191-5.69,5.338V33.35h-5.293V12.175z"/>
	<path fill="#231F20" d="M262.519,12.175v19.278c0,7.632-3.704,12.484-11.955,12.484c-3.925,0-7.499-0.838-10.498-3.484l3.177-4.324
		c2.117,1.941,4.322,3.044,7.276,3.044c5.118,0,6.707-2.912,6.707-7.103v-1.544h-0.089c-1.543,2.074-4.279,3.088-6.927,3.088
		c-6.351,0-10.542-4.852-10.542-10.851c0-6.265,3.927-11.117,10.455-11.117c2.955,0,5.735,1.146,7.279,3.706h0.088v-3.176H262.519z
		 M244.961,22.718c0,3.353,2.648,6.132,6.221,6.132c3.926,0,6.309-2.69,6.309-6.22c0-3.661-2.428-6.22-6.265-6.22
		C247.521,16.41,244.961,18.969,244.961,22.718z"/>
	<path fill="#231F20" d="M265.828,12.175h5.294v3.353h0.087c1.148-2.426,3.484-3.882,6.266-3.882c0.661,0,1.28,0.133,1.896,0.309
		v5.117c-0.883-0.22-1.72-0.397-2.559-0.397c-4.983,0-5.69,4.191-5.69,5.338V33.35h-5.294V12.175z"/>
	<path fill="#231F20" d="M285.902,24.616c0.352,3.131,2.733,5.028,5.689,5.028c2.647,0,4.365-1.234,5.69-2.867l3.794,2.867
		c-2.47,3.045-5.604,4.235-8.956,4.235c-6.396,0-11.512-4.456-11.512-11.116c0-6.662,5.115-11.117,11.512-11.117
		c5.911,0,9.928,4.147,9.928,11.514v1.456H285.902z M296.753,20.646c-0.044-3.088-2.074-5.029-5.383-5.029
		c-3.132,0-5.072,1.985-5.468,5.029H296.753z"/>
	<path fill="#231F20" d="M309.898,24.616c0.354,3.131,2.734,5.028,5.69,5.028c2.647,0,4.367-1.234,5.691-2.867l3.793,2.867
		c-2.471,3.045-5.602,4.235-8.956,4.235c-6.395,0-11.513-4.456-11.513-11.116c0-6.662,5.118-11.117,11.513-11.117
		c5.912,0,9.927,4.147,9.927,11.514v1.456H309.898z M320.75,20.646c-0.044-3.088-2.073-5.029-5.381-5.029
		c-3.132,0-5.074,1.985-5.471,5.029H320.75z"/>
	<path fill="#231F20" d="M329.309,12.175h5.029v3.397h0.087c0.971-2.118,2.956-3.926,6.485-3.926c5.69,0,7.721,4.014,7.721,8.337
		V33.35h-5.294V22.63c0-2.338-0.178-6.22-3.882-6.22c-3.484,0-4.853,2.559-4.853,5.382V33.35h-5.294V12.175z"/>
</g>
<g>
	<path fill="#231F20" d="M118.23,57.824c-1.015-1.412-2.338-2.162-4.147-2.162c-1.412,0-3.087,0.662-3.087,2.25
		c0,3.794,11.425,0.706,11.425,8.956c0,5.029-4.809,6.793-9.132,6.793c-3.264,0-6.087-0.837-8.249-3.264l3.529-3.31
		c1.367,1.5,2.779,2.604,5.028,2.604c1.544,0,3.53-0.751,3.53-2.427c0-4.367-11.426-0.926-11.426-8.998
		c0-4.72,4.235-6.838,8.514-6.838c2.823,0,5.823,0.881,7.544,3.22L118.23,57.824z"/>
	<path fill="#231F20" d="M124.052,56.457v-4.5h4.368v-6.132h5.293v6.132h5.823v4.5h-5.823v9.264c0,2.117,0.618,3.44,2.956,3.44
		c0.926,0,2.205-0.176,2.867-0.66v4.455c-1.103,0.529-2.956,0.705-4.191,0.705c-5.603,0-6.925-2.515-6.925-7.499v-9.705H124.052z"/>
	<path fill="#231F20" d="M156.918,70.219h-0.132c-1.5,2.384-3.97,3.441-6.793,3.441c-3.926,0-7.72-2.162-7.72-6.352
		c0-6.882,8.028-7.368,13.322-7.368h1.323v-0.573c0-2.602-2.029-3.972-4.853-3.972c-2.206,0-4.235,0.883-5.646,2.206l-2.779-2.776
		c2.338-2.383,5.647-3.398,9-3.398c9.043,0,9.043,6.529,9.043,9.528v12.176h-4.765V70.219z M156.609,63.647h-1.103
		c-2.911,0-7.94,0.22-7.94,3.266c0,1.939,1.985,2.778,3.706,2.778c3.617,0,5.337-1.897,5.337-4.853V63.647z"/>
	<path fill="#231F20" d="M164.461,56.457v-4.5h4.368v-6.132h5.295v6.132h5.822v4.5h-5.822v9.264c0,2.117,0.615,3.44,2.955,3.44
		c0.925,0,2.205-0.176,2.867-0.66v4.455c-1.103,0.529-2.956,0.705-4.191,0.705c-5.604,0-6.926-2.515-6.926-7.499v-9.705H164.461z"/>
	<path fill="#231F20" d="M188.33,64.396c0.351,3.133,2.732,5.031,5.689,5.031c2.646,0,4.365-1.236,5.69-2.868l3.792,2.868
		c-2.469,3.043-5.602,4.233-8.955,4.233c-6.396,0-11.512-4.455-11.512-11.116s5.116-11.117,11.512-11.117
		c5.912,0,9.928,4.147,9.928,11.514v1.454H188.33z M199.18,60.427c-0.044-3.088-2.073-5.031-5.381-5.031
		c-3.133,0-5.074,1.987-5.469,5.031H199.18z"/>
	<path fill="#231F20" d="M234.735,58.31c-1.235-1.279-2.601-2.118-4.014-2.118c-3.882,0-6.22,3.044-6.22,6.353
		c0,3.308,2.338,6.351,6.22,6.351c1.633,0,3.131-0.704,4.102-1.982l3.529,3.793c-2.161,2.162-5.778,2.955-7.631,2.955
		c-6.396,0-11.515-4.455-11.515-11.116s5.118-11.117,11.515-11.117c2.691,0,5.646,0.971,7.676,3.22L234.735,58.31z"/>
	<path fill="#231F20" d="M251.544,51.428c6.396,0,11.514,4.456,11.514,11.117s-5.117,11.116-11.514,11.116
		c-6.396,0-11.514-4.455-11.514-11.116S245.148,51.428,251.544,51.428z M251.544,68.895c3.883,0,6.222-3.043,6.222-6.351
		c0-3.309-2.339-6.353-6.222-6.353c-3.881,0-6.219,3.044-6.219,6.353C245.325,65.852,247.663,68.895,251.544,68.895z"/>
	<path fill="#231F20" d="M265.97,39.782h5.294v33.35h-5.294V39.782z"/>
	<path fill="#231F20" d="M277.263,39.782h5.294v33.35h-5.294V39.782z"/>
	<path fill="#231F20" d="M291.292,64.396c0.353,3.133,2.733,5.031,5.691,5.031c2.646,0,4.366-1.236,5.689-2.868l3.793,2.868
		c-2.47,3.043-5.602,4.233-8.955,4.233c-6.396,0-11.513-4.455-11.513-11.116s5.117-11.117,11.513-11.117
		c5.913,0,9.926,4.147,9.926,11.514v1.454H291.292z M302.144,60.427c-0.044-3.088-2.072-5.031-5.381-5.031
		c-3.133,0-5.074,1.987-5.471,5.031H302.144z"/>
	<path fill="#231F20" d="M332.714,51.957v19.276c0,7.634-3.705,12.486-11.954,12.486c-3.926,0-7.499-0.838-10.498-3.486l3.177-4.322
		c2.115,1.94,4.321,3.043,7.277,3.043c5.117,0,6.705-2.911,6.705-7.101v-1.544h-0.089c-1.544,2.071-4.279,3.087-6.925,3.087
		c-6.354,0-10.544-4.852-10.544-10.852c0-6.266,3.927-11.117,10.455-11.117c2.956,0,5.735,1.147,7.278,3.706h0.088v-3.176H332.714z
		 M315.157,62.5c0,3.352,2.646,6.132,6.222,6.132c3.925,0,6.306-2.691,6.306-6.221c0-3.662-2.426-6.22-6.263-6.22
		C317.717,56.192,315.157,58.75,315.157,62.5z"/>
	<path fill="#231F20" d="M340.833,64.396c0.353,3.133,2.735,5.031,5.689,5.031c2.648,0,4.367-1.236,5.69-2.868l3.795,2.868
		c-2.47,3.043-5.604,4.233-8.955,4.233c-6.397,0-11.514-4.455-11.514-11.116s5.116-11.117,11.514-11.117
		c5.91,0,9.926,4.147,9.926,11.514v1.454H340.833z M351.685,60.427c-0.045-3.088-2.073-5.031-5.383-5.031
		c-3.132,0-5.072,1.987-5.469,5.031H351.685z"/>
</g>
<path fill="#231F20" d="M57.66,73.918c-0.498,0.356-1.969,0.389-2.171,0.937c-0.132,0.217,0.046,0.509-0.043,0.724
	c-0.279,0.674-0.667,0.575-0.596,1.617c0.208,0.135,0.465,0.371,0.639,0.551h0.426c0.113-0.177,0.249-0.254,0.553-0.254
	c0.136,0.135,0.414,0.364,0.595,0.428c0.611,0.204,0.795-0.306,1.364-0.174c0.487,0.116,1.087,0.213,1.574,0.385
	c0.161,0.056,0.536,0.231,0.767,0.171c0.353-0.093,0.473-0.509,0.765-0.638c0.559-0.256,1.449-0.115,2.083-0.259
	c0.551-0.121,1.168,0.119,1.575,0.216c0.439-0.03,0.881-0.059,1.317-0.083c0.674,0.149,1.157,0.536,1.914,0.551v-0.042h0.043
	c0.019-0.161-0.024-0.53,0.043-0.724c0.066-0.192,0.196-0.153,0.213-0.466c-0.187-0.144-0.372-0.422-0.596-0.515
	c-0.479-0.199-0.935-0.048-1.405-0.169c-0.338-0.127-0.678-0.254-1.02-0.383c-0.562-0.164-1.102,0.518-1.19,0.426
	c-0.218-0.091-0.158-0.208-0.509-0.212c-0.18-0.113-0.405,0.034-0.598,0c-0.159-0.027-0.677-0.132-0.808-0.214
	c-0.24-0.15-0.518-0.54-0.638-0.809c-0.012-0.073-0.028-0.14-0.043-0.212c-0.082-0.121-0.849-0.474-1.021-0.511
	c-0.137-0.032-0.33,0.06-0.424,0.084c-0.244,0.059-0.389,0-0.596,0.085c-0.231,0.099-0.55,0.486-1.022,0.342
	c-0.408-0.127-0.365-0.617-0.638-0.767C58.099,73.903,57.882,73.912,57.66,73.918 M7.754,62.35
	c-0.348,0.226-0.788,0.211-1.191,0.379c-0.251,0.107-0.319,0.37-0.511,0.512c-0.331,0.243-0.643-0.021-0.639,0.598
	c0.357,0.086,0.689,0.091,1.022,0.209c0.155,0.058,0.386,0.251,0.553,0.302c0.275,0.08,0.982-0.201,1.233-0.256
	c0.101-0.116,0.2-0.226,0.297-0.343c0.008-0.402-0.175-0.485-0.255-0.721c-0.104-0.312,0.153-0.51-0.212-0.638
	C7.987,62.344,7.879,62.347,7.754,62.35 M43.874,54.348c-0.031,0.397-0.592,0.521-1.021,0.513
	C42.87,54.337,43.409,54.302,43.874,54.348 M42.046,52.815c-0.388,0.234-0.884,0.043-1.406,0.172
	c-0.648,0.16-1.467,0.253-2.083,0.511c-0.422,0.174-0.917,0.398-1.319,0.638c-0.351,0.209-0.53,0.686-0.768,1.023
	c-0.037,0.055-0.966,0.478-1.061,0.51c-0.561,0.176-0.795-0.367-1.021-0.471h-1.021c-0.354,0.206-0.873-0.105-1.278,0
	c-0.497,0.137-1.173,0.195-1.659,0.387c-0.871,0.333-1.662,1.021-2.552,1.358c-0.199,0.029-0.398,0.058-0.596,0.086
	c-0.258,0.081-0.551,0.245-0.81,0.338c-0.302,0.109-0.562,0.092-0.85,0.216c-0.466,0.197-0.819,0.596-1.36,0.722
	c-0.252,0.059-0.577-0.14-0.937-0.042c-0.389,0.106-0.812,0.352-1.191,0.468c-0.27-0.013-0.539-0.027-0.81-0.042
	c-0.251,0-0.425,0.045-0.594,0.083c-0.37,0.015-0.737,0.029-1.106,0.044c-0.504,0.115-0.946,0.268-1.363,0.385
	c-0.54,0.027-1.078,0.056-1.616,0.084c-0.318,0.079-0.787,0.188-1.107,0.257c-0.328,0.074-0.548-0.149-0.892-0.04
	c-0.268,0.074-0.535,0.286-0.809,0.379c-0.677,0.231-1.427,0.28-2.086,0.554c-0.388,0.16-0.807,0.61-1.105,0.893
	c-0.018,0.464-0.018,1.24,0.212,1.617c0.129,0.206,0.383,0.324,0.512,0.508c0.098,0.143,0.088,0.36,0.211,0.47
	c0.09,0.08,0.283,0.061,0.341,0.172c0.077,0.142-0.042,0.256,0.085,0.339c0.107,0.071,0.225,0.024,0.34,0.086
	c0.12,0.061,0.211,0.244,0.341,0.297c0.338,0.141,0.568,0.143,0.936,0.256c0.419,0.128,0.88,0.353,1.317,0.469
	c0.377,0.097,0.808-0.069,1.064-0.128c0.609-0.145,1.431,0.085,1.957,0.214c0.222,0.052,0.467-0.047,0.639,0.041
	c0.963,0.496,2.069,0.992,2.935,1.616c0.239,0.171,0.388,0.438,0.596,0.636c0.137,0.134,0.357,0.186,0.509,0.3
	c0.278,0.206,0.484,0.569,0.769,0.765c0.402,0.281,0.905,0.622,1.36,0.808c0.585,0.24,1.423,0.087,1.956-0.04h0.596
	c0.19-0.041,0.587-0.081,0.808-0.13h0.724c0.456-0.114,0.998-0.348,1.446-0.426c0.593-0.101,1.017,0.395,1.404,0.556
	c0.187,0.075,0.481,0.127,0.637,0.171c0.474,0.122,1.611-0.021,1.915-0.089c0.641-0.14,1.317,0.276,2.086,0.089
	c0.696-0.175,0.729-0.599,1.189-0.853c0.286-0.159,0.551-0.112,0.724-0.427c0.145-0.259,0.052-0.666,0.213-0.893
	c0.149-0.21,0.487-0.224,0.637-0.427c0.173-0.251-0.089-0.554,0.299-0.637c0.206,0.285,0.682,0.103,1.064,0.212
	c0.199,0.062,0.433,0.26,0.596,0.385c0.121,0.093,0.106,0.28,0.211,0.38c0.073,0.075,0.208,0.03,0.254,0.128v0.344
	c0.045,0.096,0.23,0.213,0.299,0.295c0.267,0.323,0.394,0.803,0.637,1.149c0.06,0.085,0.183,0.104,0.256,0.172
	c0.446,0.415,0.857,0.778,1.361,1.146c0.296,0.217,0.296,0.515,0.808,0.555c0.065-0.044,0.186-0.038,0.258-0.085
	c0.102-0.072,0.25-0.286,0.338-0.386c0.75-0.046,0.873,0.248,1.275,0.639c0.101,0.074,0.199,0.144,0.298,0.215
	c0.146,0.191,0.253,0.484,0.468,0.598c0.262,0.132,0.719-0.08,1.021,0.04c0.074,0.028,0.187,0.172,0.255,0.214
	c0.256,0.154,0.674,0.3,0.937,0.383c0.342,0.106,0.88-0.062,1.189,0c0.35,0.07,0.896,0.649,1.405,0.297
	c0.217-0.073,0.854-0.771,0.939-0.979c0.119-0.299,0.104-1.927,0.04-2.215v-0.978c-0.071-0.269-0.263-0.751-0.213-1.106
	c0.138-0.933,0.18-2.192,0.427-3.229v-1.365c0.209-0.945,0.197-2.054-0.042-2.935c-0.106-0.379-0.019-0.885-0.086-1.191
	c-0.042-0.182,0.032-0.38,0.042-0.507c0.046-0.487-0.01-2.501-0.167-2.77c-0.152-0.25-1.144-0.116-1.406-0.168
	c-0.332-0.07-0.565-0.348-0.851-0.47c-0.311-0.13-0.625-0.044-1.02-0.125c-0.111-0.027-0.42-0.096-0.597-0.045
	c-0.305,0.09-0.404,0.345-0.767,0.385c-0.071-0.071-0.235-0.094-0.295-0.171c-0.134-0.169-0.13-0.421-0.254-0.595
	c-0.101-0.073-0.2-0.143-0.299-0.213c-0.93-0.02-1.232,0.577-1.829,0.895c-0.389,0.203-0.71,0.194-1.193,0.339
	c-0.375,0.11-0.838,0.336-1.232,0.466c-0.157,0.028-0.313,0.058-0.469,0.088c-0.767,0.322-1.565,0.772-2.254,1.189
	c-0.126,0.043-0.255,0.086-0.382,0.126c-0.568,0.36-1.438,0.859-2.382,0.682c-0.093-0.169-0.217-0.426-0.299-0.597
	c-0.304-0.643,0.096-0.902,0.468-1.148c0.123-0.079,0.237-0.234,0.383-0.298c0.701-0.293,1.878-0.352,2.253-0.934
	c0.221-0.339-0.009-0.683,0.085-0.978c0.078-0.24,0.48-0.766,0.682-0.895c0.436-0.279,1.664-0.082,1.742-0.684
	c-0.064-0.046-0.033-0.043-0.125-0.084C43.021,52.72,42.354,52.812,42.046,52.815 M52.935,52.134
	c-0.675,0.535-1.493,0.867-2.424,1.15c-0.412,0.125-0.835-0.062-0.852,0.472h0.085c0.283,0.188,0.934,0.136,1.276,0.042
	c0.673-0.192,2.343-0.81,2.424-1.49C53.299,52.168,53.256,52.128,52.935,52.134 M55.615,48.478c-0.172,0.525,0.181,1.055,0,1.573
	c-0.046,0.138-0.237,0.239-0.296,0.384c-0.056,0.438-0.113,0.881-0.171,1.319c0.09,0.423,0.317,0.8,0.341,1.189
	c-0.413,0.383-0.263,0.955-0.128,1.489c0.471,0.208,1.108,0.161,1.575,0.044c0.333-0.081,0.618,0.052,0.894,0
	c0.265-0.047,0.493-0.093,0.809-0.166c0.286-0.074,0.847-0.237,1.192-0.174c0.268,0.051,0.505,0.188,0.723,0.256
	c0.246,0.073,0.432-0.02,0.637,0.084c0.18,0.092,0.347,0.278,0.594,0.342c0.372,0.092,0.896-0.03,1.152-0.084h0.509
	c0.309-0.073,0.628-0.126,1.064-0.129c0.127-0.001,0.263-0.058,0.341-0.043c0.097,0.017,0.248,0.178,0.34,0.211
	c0.54,0.203,1.511,0.093,1.871-0.168c0.032-0.049,0.027-0.041,0.042-0.129c-0.256-0.116-0.717-0.104-1.062-0.166
	c-0.353-0.59-0.828-0.918-1.361-1.322c-0.227-0.254-0.454-0.51-0.681-0.767c-0.073-0.017-0.142-0.026-0.215-0.042
	c-0.068-0.083-0.142-0.168-0.212-0.257c-0.194-0.108-0.412-0.094-0.595-0.21c-0.16-0.103-0.351-0.271-0.551-0.34
	c-0.143-0.015-0.287-0.03-0.428-0.043c-0.067-0.025-0.183-0.147-0.253-0.169c-0.155-0.051-0.378,0.073-0.472,0.043
	c-0.082-0.033-0.153-0.216-0.254-0.255c-0.155-0.016-0.309-0.028-0.466-0.043c-0.223-0.084-0.471-0.306-0.723-0.382
	c-0.137-0.042-0.309,0.033-0.385,0.042c-0.259,0.034-0.505-0.085-0.724-0.171c-0.33-0.127-0.852-0.546-1.146-0.766
	c-0.075-0.083-0.142-0.169-0.214-0.254c-0.292-0.195-0.943-0.279-1.191-0.468C55.938,48.725,56.088,48.526,55.615,48.478
	 M55.318,39.417c-0.075,0.233-0.18,0.395-0.129,0.679c0.554,0.137,0.805,0.628,1.361,0.722c0.028-0.072,0.039-0.133,0.042-0.253
	c-0.057-0.157-0.112-0.314-0.167-0.469c-0.173-0.257-0.505-0.457-0.724-0.679H55.318z M49.787,40.097v0.17
	c0.109,0.065,0.254,0.18,0.382,0.211c0.29,0.079,0.456-0.136,0.598-0.082c0.37,0.103,0.889,0.419,1.02,0.766
	c0.128,0.337,0.113,0.617,0.297,0.891c0.142,0.115,0.285,0.229,0.426,0.34c0.099,0.158,0.013,0.361,0.087,0.553
	c0.061,0.172,0.303,0.3,0.424,0.425h0.213c0.033-0.094,0.044-0.23,0.044-0.383c-0.094-0.17,0.04-0.659,0.04-0.977
	c-0.014-0.78-0.027-1.561-0.04-2.338c0.067-0.296,0.193-1.078,0-1.362c-0.059-0.039-0.108-0.039-0.215-0.043
	c-0.212,0.316-0.677,0.411-0.979,0.639c-0.131,0.101-0.156,0.24-0.254,0.383C51.434,39.855,50.775,40.097,49.787,40.097
	 M49.487,40.097c-0.026-0.494-0.416-0.582-0.466-1.147c0.197-0.13,0.371-0.368,0.383-0.682c-0.699-0.018-1.14,0.305-1.616,0.508
	c-0.296,0.129-0.577,0.058-0.596,0.471c0.141,0.035,0.232,0.134,0.34,0.17c0.314,0.1,0.589-0.034,0.851,0.083
	C48.792,39.682,48.862,40.077,49.487,40.097 M54.509,24.399c-0.17,0.155-0.258,0.116-0.253,0.469
	c0.147,0.139,0.19,0.177,0.508,0.169c0.072-0.132,0.09-0.276,0.085-0.51c-0.034-0.046-0.015-0.012-0.043-0.087
	C54.73,24.414,54.64,24.402,54.509,24.399 M54.552,22.818h-0.213c-0.054,0.219-0.085,0.918-0.083,1.24
	c0.115,0.061,0.322,0.083,0.524,0.086c0.026-0.083,0.042-0.166,0.042-0.299C54.736,23.722,54.572,23,54.552,22.818 M16.859,20.101
	c-0.46,0.77-0.146,1.73,0.297,2.341c0.268,0.369,0.636,0.647,1.15,0.766h0.596c0.068,0.021,0.185,0.142,0.253,0.17
	c0.423,0.156,0.951,0.195,1.363,0.298c0.239,0.014,0.481,0.027,0.724,0.041c0.362,0.082,0.958,0.239,1.446,0.129
	c0.392-0.088,0.733-0.215,1.105-0.297v-0.17c-0.432-0.166-0.967-0.294-1.447-0.426c-0.326-0.029-0.651-0.056-0.978-0.087
	c-0.547-0.162-1.074-0.497-1.532-0.765c-0.156-0.058-0.311-0.114-0.467-0.169c-0.345-0.214-0.653-0.536-0.98-0.769
	c-0.152-0.106-0.318-0.142-0.467-0.253C17.582,20.662,17.412,20.125,16.859,20.101 M53.317,18.441h0.356
	c0.044-0.123,0.046-0.326,0.044-0.511c-0.034-0.042-0.158-0.153-0.187-0.227c-0.064-0.023-0.074,0.115-0.17,0.102
	C53.309,17.956,53.316,18.225,53.317,18.441 M19.795,13.847c-0.753,0.607-2.481,1.054-2.47,2.34
	c0.125,0.152,0.247,0.431,0.299,0.637v0.724c0.082,0.328,0.274,0.838,0.425,1.149c0.123,0.251,1.162,0.672,1.449,0.894
	c0.211,0.166,0.334,0.885,0.637,1.107c0.414,0.303,1.069,0.552,1.617,0.681c0.28,0.067,0.6-0.151,0.808-0.085
	c0.07,0.085,0.143,0.17,0.213,0.256c0.185,0.122,0.329,0.053,0.594,0.127c0.1,0.027,0.241,0.142,0.343,0.172
	c0.349,0.095,1.915-0.279,2.167-0.385c0.347-0.143,0.799-0.375,1.107-0.596c0.15-0.109,0.271-0.322,0.426-0.426
	c0.255-0.085,0.51-0.169,0.764-0.255c0.144-0.109,0.184-0.362,0.343-0.468c0.26-0.173,0.598-0.165,0.85-0.341
	c0.307-0.211,0.393-0.723,0.553-1.106c0.231-0.552,0.613-1.005,0.299-1.788c-0.188-0.081-0.453-0.139-0.639-0.255
	c-0.173-0.105-0.34-0.318-0.554-0.382c-0.345-0.097-0.719,0.079-0.938,0.127c-0.343,0.084-0.507-0.15-0.807-0.081
	c-0.177,0.039-0.383,0.202-0.681,0.125c-0.328-0.085-0.83-0.143-1.148-0.296c-0.113-0.057-0.271-0.176-0.424-0.216
	c-0.541,0.029-1.08,0.058-1.616,0.087c-0.482-0.147-0.97-0.552-1.447-0.681c-0.186,0.015-0.37,0.027-0.554,0.042
	c-0.234-0.049-0.668-0.261-0.893-0.382c-0.274-0.147-0.273-0.56-0.554-0.681C19.916,13.854,19.894,13.858,19.795,13.847
	 M22.816,13.676c-0.064,0.094-0.076,0.082-0.086,0.258c0.035,0.043,0.016,0.009,0.043,0.085c0.223,0.129,0.535,0.386,0.766,0.466
	c0.109,0.036,1.042,0.183,1.105,0.171c0.098-0.02,0.347-0.08,0.511-0.041c0.412,0.094,0.818,0.163,1.404,0.168
	c0.026-0.074,0.037-0.131,0.042-0.254H26.56v-0.044c-0.198-0.019-0.354-0.138-0.597-0.083c-0.115,0.025-0.307,0.144-0.51,0.083
	C24.604,14.229,23.932,13.713,22.816,13.676 M25.58,11.765c-0.102,0.063-0.271,0.003-0.425,0.042
	c-0.176,0.042-0.38,0.226-0.511,0.255c-0.405,0.091-0.871-0.311-1.404-0.214c-0.023,0.068-0.033,0.104-0.042,0.214
	c0.386,0.091,0.779,0.318,1.148,0.426c0.431,0.12,0.786-0.046,1.19,0.081c0.267,0.088,0.603,0.288,0.852,0.383
	c0.354,0.088,0.71,0.174,1.062,0.258c0.238,0.107,0.33,0.359,0.511,0.512c0.101,0.081,0.233,0.09,0.341,0.168
	c0.656,0.476,0.572,0.719,1.787,0.726c0.059-0.111,0.082-0.149,0.084-0.344c-0.048-0.057-0.063-0.12-0.084-0.21
	c-0.132-0.081-0.254-0.221-0.384-0.297c-0.346-0.216-1.047-0.276-1.189-0.683c-0.072-0.115-0.012-0.39-0.087-0.512
	c-0.153-0.249-0.357-0.186-0.678-0.294C27.088,12.05,26.516,11.765,25.58,11.765 M53.233,5.468
	c-0.454,0.306-1.139,0.318-1.703,0.509c-0.666,0.225-1.553,0.451-2.254,0.637c-0.329,0.089-0.533,0.028-0.852,0.128
	c-0.284,0.156-0.566,0.312-0.849,0.468c-0.257,0.056-0.512,0.112-0.766,0.17c-0.673,0.286-0.875,1.148-1.488,1.532
	c-0.483,0.3-1.053,0.528-1.617,0.725c-0.128,0.012-0.256,0.025-0.384,0.041c-0.584,0.209-1.176,0.472-1.745,0.682
	c-0.335,0.121-0.592,0.103-0.936,0.212c-0.602,0.19-1.156,0.641-1.786,0.724c-0.081,0.009-0.28-0.073-0.34-0.086
	c-0.093-0.021-1.588,0.003-1.745,0.043c-0.13,0.034-0.346,0.136-0.469,0.17c-0.351,0.095-1.803-0.219-2.126-0.298h-1.661
	c-0.214-0.048-0.71-0.083-0.935-0.083c-0.146,0-0.39,0.086-0.596,0.042c-0.581-0.131-1.605-0.216-2.297-0.085
	c-0.028,0.08-0.039,0.164-0.042,0.298c0.075,0.054,0.099,0.161,0.169,0.213c0.256,0.177,0.754,0.275,0.937,0.511
	c0.11,0.139,0.077,0.44,0.211,0.549c0.221,0.18,0.595,0.162,0.768,0.383c0.147,0.198,0.196,0.429,0.338,0.638
	c0.132,0.194,0.354,0.346,0.511,0.513c0.923,0.014,2.172-0.798,2.892-1.104c0.27-0.116,0.452-0.08,0.767-0.171
	c0.694-0.203,1.564-0.541,2.298-0.724c0.979-0.243,1.67,0.465,2.51,0.255c0.307-0.077,1.443-0.425,1.746-0.384
	c0.519,0.075,1.021,0.148,1.487,0.258h1.278c0.303,0.066,0.692,0.045,1.021,0.042c0.084,0.012,0.169,0.027,0.253,0.042
	c0.093-0.024,0.22-0.143,0.297-0.171c0.142-0.015,0.285-0.029,0.428-0.042c0.05-0.021,0.147-0.147,0.21-0.17
	c0.299-0.104,0.543-0.043,0.81-0.169c0.024-0.014,0.091-0.117,0.128-0.131c0.126-0.043,1.071-0.146,1.147-0.125
	c0.159,0.038,0.416,0.222,0.636,0.084c0.168-0.06,0.179-0.176,0.299-0.255c0.234-0.16,0.521-0.201,0.681-0.427
	c0.104-0.142,0.113-0.321,0.214-0.467c0.287-0.419,0.842-0.604,1.021-1.147c0.015-0.213,0.029-0.426,0.043-0.64
	c-0.01-0.033-0.122-0.139-0.127-0.171c-0.052-0.225,0.169-0.291,0.212-0.423c0.174-0.519-0.178-1.159,0.509-1.193
	c0.145,0.089,0.97,0.088,1.151,0.127c0.257,0.406,0.588,0.688,0.723,1.234c0.117,0.478-0.205,0.843-0.297,1.192
	c-0.129,0.483-0.008,0.941,0.04,1.32c0.028,0.203-0.083,0.446-0.04,0.68c0.04,0.014,0.084,0.028,0.128,0.043
	c0.181,0.114,0.397-0.049,0.552-0.087c0.303-0.068,0.591,0.211,0.935,0.087c0.064-0.023,0.619-0.443,0.682-0.511
	c0.214,0.04,0.41-0.025,0.597,0.042c0.458,0.158,1.076,0.456,1.533,0.596c0.495,0.153,0.935-0.289,1.403-0.214
	c0.566,0.093,1.179-0.063,1.744-0.212h0.594c0.59-0.137,1.244-0.213,1.957-0.297c0.107-0.151,0.301-0.253,0.385-0.425
	c0.116-0.247,0.1-0.487,0.256-0.681c0.067-0.043,0.141-0.086,0.211-0.126c0.065-0.109,0.017-0.246,0.087-0.34
	c0.097-0.141,0.217-0.046,0.382-0.129c0.068-0.1,0.142-0.2,0.212-0.297c0.041-0.45-0.046-1.225-0.426-1.363
	c-0.237-0.145-0.8,0.019-1.021,0.085c-0.303,0.092-0.537,0.229-0.809,0.341c-0.378,0.154-0.791,0.187-1.19,0.297
	c-0.207,0.056-0.578,0.213-0.854,0.129c-0.221-0.071-0.506-0.233-0.764-0.297c-0.302-0.075-0.586,0.039-0.809,0
	c-0.427-0.077-0.989-0.22-1.316-0.426c-0.474-0.296-0.743-0.825-1.067-1.278c-0.057-0.042-0.114-0.084-0.169-0.126
	c-0.114-0.197-0.109-0.405-0.298-0.511c-0.408-0.231-1.04-0.012-1.574-0.128c-0.182-0.04-0.483-0.132-0.723-0.084
	c-0.088,0.018-0.312,0.076-0.468,0.042C53.833,5.498,53.548,5.468,53.233,5.468 M16.433,24.187c-0.193-0.107-0.44-0.429-0.511-0.638
	v-0.766c-0.081-0.358-0.208-0.839-0.296-1.191c-0.082-0.322-0.03-0.727-0.086-1.021c-0.052-0.288,0.133-0.675,0.045-1.021
	c-0.108-0.417-0.056-0.612,0.042-0.979c0.083-0.32-0.088-0.697-0.042-0.935v-1.232c0.041-0.189,0.13-0.45,0.167-0.6
	c0.11-0.403-0.042-0.803,0.087-1.146c0.201-0.546,0.718-0.733,1.021-1.149c0.403-0.555,0.942-1,1.531-1.361
	c0.165-0.099,0.361-0.105,0.512-0.212c0.172-0.121,0.3-0.343,0.468-0.468c0.429-0.326,0.869-0.635,1.233-1.021
	c0.492,0.007,1.332,0.29,1.702,0.212c0.309-0.066,0.722-0.021,1.021-0.127c0.187-0.067,0.427-0.237,0.638-0.298
	c0.214-0.016,0.428-0.027,0.638-0.044c0.134-0.035,0.353-0.131,0.513-0.169c0.531-0.124,0.943,0.205,1.402,0.087
	c0.175-0.045,0.469-0.029,0.681-0.087c0.355-0.093,0.937-0.361,1.447-0.254c0.235,0.049,0.647-0.023,0.937,0.043
	c0.765,0.168,1.638,0.138,2.467,0.255c0.48,0.066,1.204-0.124,1.66-0.045c0.34,0.058,0.883-0.039,1.276,0.045
	c0.847,0.178,2.093,0.123,2.85-0.045c0.467-0.103,0.83,0.114,1.319,0c0.714-0.164,1.633-0.202,2.424-0.466
	C41.92,9.435,42.281,9.168,42.6,9.04c0.546-0.22,1.105-0.291,1.573-0.596c0.303-0.201,0.434-0.611,0.721-0.808
	c0.165-0.11,0.32-0.144,0.468-0.256c0.17-0.127,0.278-0.364,0.469-0.466c0.071-0.017,0.142-0.03,0.215-0.045
	c0.083-0.055,0.096-0.186,0.168-0.256c0.102-0.097,0.687-0.486,0.808-0.553c0.477-0.252,1.082-0.273,1.616-0.468
	c0.379-0.134,0.772-0.438,1.149-0.551c0.431-0.129,0.815-0.041,1.276-0.172c0.266-0.073,0.537-0.282,0.767-0.382
	c0.372-0.159,0.706-0.072,1.147-0.17c0.408-0.092,1.052-0.306,1.663-0.172c0.559,0.127,1.048,0.213,1.615,0.342
	c0.633,0.143,1.287,0.003,1.701,0.339C58,4.942,58.04,5.055,58.083,5.169c0.072,0.057,0.141,0.114,0.213,0.169
	c0.251,0.371,0.36,0.852,0.682,1.149c0.133,0.127,1.232,0.444,1.489,0.51h0.597c0.22,0.078,0.382,0.356,0.639,0.427
	c0.535,0.147,1.304-0.378,1.571-0.554c0.292-0.191,0.685-0.227,0.98-0.425c0.151-0.103,0.19-0.271,0.296-0.426
	c0.348-0.498,1.076-0.748,1.872-0.551c0.237,0.359,0.461,0.66,0.47,1.274c0.179,0.109,0.416,0.228,0.597,0.34
	c-0.031,0.076-0.009,0.044-0.045,0.086c-0.105,0.261-0.448,0.315-0.552,0.595c-0.132,0.356,0.188,0.681,0.041,1.107
	c-0.043,0.125-0.214,0.231-0.254,0.382c-0.101,0.359,0.163,0.63,0.128,0.852c-0.043,0.276-0.249,0.477-0.258,0.893
	c0.415-0.009,0.587-0.14,0.895-0.212c0.356-0.016,0.71-0.029,1.063-0.043c0.154-0.042,0.33-0.207,0.555-0.17
	c0.208,0.033,0.958,0.244,1.106,0.339c0.098,0.064,0.175,0.203,0.298,0.255c0.209,0.043,0.424,0.086,0.637,0.129
	c0.436,0.182,0.844,0.528,1.234,0.766c0.627,0.383,1.483,0.362,1.83,1.02c0.458,0.874,0.298,1.823,0.553,2.892v0.51
	c0.189,0.834,0.447,1.668,0.639,2.426c0.073,0.297,0.112,0.763,0.125,1.025v0.678c0.064,0.236,0.18,0.891,0.129,1.191
	c-0.016,0.099-0.077,0.343-0.042,0.511c0.024,0.116,0.086,0.414,0.042,0.596c-0.06,0.237-0.196,0.474-0.254,0.723
	c-0.015,0.283-0.032,0.565-0.042,0.851c-0.164,0.588-0.627,1.416-0.427,2.296c0.317,1.403,0.192,3.069,0.51,4.509v0.851
	c0,0.578,0.022,1.125,0.128,1.534v0.935c0.099,0.456,0.05,1.164,0.127,1.659c-0.191,0.491-0.253,1.268-0.255,1.873v1.021
	c-0.219,1.018-0.281,2.952-0.041,4.04c-0.015,0.964-0.032,1.928-0.042,2.893c0.235,1.077,0.308,2.268,0.549,3.362
	c0.148,0.648-0.051,1.492,0.089,2.126c0.031,0.156-0.024,0.381-0.044,0.47c-0.076,0.361,0.102,0.641,0.044,0.978
	c-0.044,0.25-0.138,0.636-0.089,0.934c0.054,0.304,0.111,0.724,0.172,1.021c-0.014,0.283-0.027,0.567-0.043,0.853
	c0.195,0.721,0.293,1.679,0.128,2.426c-0.083,0.389,0.045,0.972,0,1.238c0.043,0.691,0.085,1.387,0.128,2.082
	c-0.017,0.211-0.03,0.424-0.043,0.636c0.055,0.273,0.181,0.778,0.085,1.154c-0.125,0.49-0.083,1.098,0.044,1.61v0.597
	c0.054,0.199,0.198,0.441,0.253,0.683v1.06c0.203,0.913-0.139,2.047,0.087,3.066v0.466c0.214,0.974,0.305,1.715,0.298,2.725
	c-0.005,0.416,0,0.901-0.088,1.191c-0.013,0.241-0.027,0.48-0.042,0.726c-0.086,0.262-0.67,0.615-0.851,0.977
	c-0.154,0.311-0.096,0.688-0.254,0.98c-0.137,0.253-0.449,0.455-0.553,0.722c-0.03,0.154-0.058,0.312-0.088,0.468
	c-0.11,0.178-0.359,0.237-0.509,0.383c-0.099,0.097-0.142,0.254-0.252,0.342c-0.301,0.223-0.59,0.412-0.895,0.635
	c-0.367,0.27-0.606,0.757-1.021,0.979c-0.185,0.043-0.37,0.085-0.552,0.129c-0.284,0.104-0.548,0.317-0.809,0.422
	c-0.246,0.107-0.466,0.116-0.68,0.257c-0.086,0.101-0.172,0.2-0.258,0.3c-0.424,0.286-0.91,0.418-1.403,0.639
	c-0.232,0.102-0.416,0.264-0.722,0.337h-0.639c-1.072,0.245-2.365-0.039-3.533,0.214c-0.425,0.016-0.849,0.031-1.275,0.046
	c-0.072-0.015-0.29-0.083-0.425-0.046c-0.042,0.012-0.165,0.115-0.213,0.127c-0.397,0.013-0.796,0.03-1.191,0.044
	c-1.174,0.269-2.338,0.283-3.53,0.428c-0.154,0.016-0.617-0.055-0.767-0.084c-0.166-0.036-0.414,0.022-0.511,0.038
	c-0.096,0.022-0.873-0.073-0.936-0.085c-0.502-0.094-1.147,0.11-1.576,0.047c-0.251-0.044-0.569-0.21-0.935-0.13
	c-0.968,0.205-2.589,0.359-3.617,0.214c-0.54,0.027-1.078,0.055-1.615,0.081c-0.311-0.065-0.69-0.15-0.938-0.212
	c-0.216-0.052-0.95,0.114-1.233,0.085c-0.309-0.026-0.731-0.144-1.022-0.212c-0.384-0.091-0.9-0.013-1.19-0.083h-1.19
	c-0.202-0.047-0.664-0.16-0.853-0.131c-0.062,0.011-0.241,0.121-0.299,0.131c-0.15,0.021-0.496-0.098-0.722-0.047
	c-0.376,0.09-1.021,0.06-1.487-0.04c-0.387-0.083-0.904,0.03-1.234-0.044c-0.535-0.115-0.883,0.198-1.406,0.084
	c-0.229-0.046-0.521,0.05-0.765,0c-0.514-0.096-1.442-0.096-1.958,0c-0.406,0.079-0.711-0.229-1.191-0.123
	c-0.886,0.188-1.876-0.052-2.851,0.17c-0.255-0.014-0.51-0.03-0.766-0.047c-1.214,0.269-2.696,0.153-3.913,0.388
	c-0.389,0.072-0.948-0.14-1.404-0.046c-0.629,0.133-1.417,0.117-1.959,0c-0.124-0.023-0.23,0.034-0.297,0.046
	c-0.356,0.052-0.783-0.03-1.019-0.084h-0.937c-0.742-0.196-1.869-0.31-2.682-0.13c-0.397,0.086-1.028-0.084-1.317,0
	c-0.196,0.059-0.257,0.345-0.555,0.295c-0.242-0.034-0.578-0.194-0.807-0.252H12.69c-0.285-0.072-0.813-0.152-1.064-0.217
	c-0.297,0.017-0.595,0.033-0.892,0.047c-0.607-0.16-1.53-0.118-2.128-0.258h-0.64c-0.61-0.164-1.18-0.699-1.701-1.022
	c-0.306-0.188-0.672-0.164-1.021-0.336c-0.264-0.136-0.516-0.401-0.766-0.554c-0.252-0.155-0.554-0.183-0.809-0.342
	c-0.197-0.123-0.199-0.288-0.338-0.469c-0.104-0.132-0.382-0.163-0.47-0.3c-0.012-0.082-0.027-0.167-0.042-0.254
	c-0.078-0.179-0.262-0.342-0.341-0.508c-0.105-0.234-0.07-0.464-0.168-0.724c-0.174-0.456-0.397-0.968-0.512-1.532
	c-0.074-0.367,0.183-0.748,0.086-1.191c-0.125-0.555-0.087-1.352-0.212-1.914c-0.015-0.626-0.03-1.249-0.044-1.873
	c-0.121-0.555-0.023-1.208-0.126-1.661v-0.809c-0.072-0.297,0.011-0.647-0.085-1.061c-0.241-1.026-0.356-2.258-0.426-3.402
	c-0.008-0.126,0.06-0.479,0.086-0.597v-1.025c0.097-0.459,0.072-1.097,0.168-1.529v-0.639c0.08-0.363,0.138-1.142,0.042-1.572
	c-0.278-1.281,0.058-2.686-0.254-3.959c-0.096-0.391,0.031-0.931-0.043-1.272c0.015-0.412,0.027-0.822,0.043-1.235
	c-0.176-0.796-0.115-1.845-0.298-2.684v-0.594c-0.083-0.355-0.064-0.814-0.17-1.231c-0.344-1.359-0.643-3.521-0.383-5.319
	c0.124-0.861-0.335-1.512-0.127-2.427c0.103-0.453,0.054-1.029,0.17-1.529c0.135-0.581,0.281-1.205,0.424-1.79v-0.977
	c0.194-0.886,0.018-2.037,0.213-2.935c0.063-0.295-0.067-1.493-0.127-1.788c0.014-0.452,0.028-0.906,0.042-1.362
	c-0.03-0.858-0.042-1.863-0.211-2.635c-0.144-0.657,0.012-1.574,0.127-2.085c0.014-0.312,0.026-0.624,0.042-0.935
	c0.196-0.772,0.247-1.843,0.426-2.596c0.027-0.496,0.055-0.992,0.083-1.489c-0.014-0.112-0.028-0.228-0.042-0.34
	c0.198-1.036,0.213-2.146,0.213-3.318c-0.015-0.667-0.028-1.333-0.043-1.998c0.09-0.4,0.129-0.885,0.214-1.237v-0.507
	c0.261-1.046,0.426-2.032,0.679-3.107C2.378,10.139,2.303,9.8,2.435,9.339c0.03-0.1,0.144-0.24,0.17-0.342V8.616
	c0.052-0.111,0.252-0.211,0.298-0.34v-0.3c0.095-0.288,0.24-0.585,0.386-0.807c0.155-0.247,0.084-0.654,0.38-0.766
	C3.75,6.517,3.772,6.38,3.968,6.386c0.029-0.079,0.041-0.025,0.043-0.154C3.903,6.168,3.876,6.168,3.84,6.019
	c0.101-0.103,0.136-0.3,0.256-0.383c0.296-0.098,0.595-0.196,0.893-0.297c0.144-0.097,0.233-0.283,0.339-0.426
	c0.103-0.133,0.241-0.154,0.385-0.256C5.98,4.472,6.172,4.122,6.436,3.935c0.141-0.102,0.303-0.083,0.468-0.171
	C7.224,3.599,7.615,3.326,7.925,3.17h0.213C8.524,2.903,8.91,2.453,9.371,2.275C9.484,2.262,9.599,2.247,9.71,2.234
	c0.145-0.058,0.31-0.21,0.47-0.259c0.155-0.014,0.312-0.027,0.468-0.041c0.791-0.26,1.704-0.606,2.51-0.851
	c0.443-0.134,1.041-0.024,1.447-0.211c0.1,0.009,0.164,0.13,0.339,0.083c0.075-0.02,0.266-0.148,0.341-0.171
	c0.808-0.014,1.616-0.029,2.424-0.044c0.63-0.118,2.411-0.042,3.192,0.131c0.184,0.038,0.388-0.058,0.511-0.045
	c0.768,0.08,1.724,0.175,2.467,0.341h0.81c0.989,0.223,2.337-0.002,3.317,0.211c0.24,0.055,0.637-0.003,0.808-0.042
	c0.651-0.142,1.359,0.046,1.958-0.084c0.418-0.093,0.864,0.059,1.191,0c0.788-0.145,1.96-0.114,2.766-0.298
	c0.566,0.015,1.135,0.028,1.701,0.042c0.375-0.08,0.704,0.056,1.15-0.042c0.547-0.12,1.677-0.128,2.169-0.042
	c0.354,0.059,0.943-0.145,1.232-0.213c0.3-0.071,0.641-0.001,0.852,0c0.686,0.009,1.322-0.004,1.873-0.128h0.723
	c0.27-0.062,0.755-0.107,1.021-0.168h0.596c0.519-0.122,1.146-0.225,1.614-0.341h0.893c0.174-0.04,0.658-0.118,0.894-0.042
	c0.104,0.033,0.241,0.175,0.34,0.211c0.229,0.083,0.665,0.038,0.895,0.086c0.368-0.015,0.737-0.029,1.105-0.046
	c0.36,0.083,1.253,0.175,1.575,0.131c0.441-0.067,0.955-0.185,1.363-0.085h1.487c1.174,0.26,2.422,0.055,3.533,0.043
	c0.534-0.006,1.159,0.017,1.658,0.127c0.253,0.053,0.583-0.062,0.764-0.044c0.464,0.048,1.035,0.12,1.406,0.214
	c0.752-0.072,1.505-0.145,2.253-0.214c0.383,0.086,0.907,0.12,1.323,0.255c0.258,0.086,0.535,0.27,0.805,0.341
	c0.389,0.101,0.694,0.03,1.022,0.167c0.205,0.088,0.433,0.295,0.637,0.385c0.375,0.165,0.702,0.151,1.105,0.299
	c0.207,0.073,0.703,0.405,0.894,0.55c0.339,0.258,0.525,0.706,0.769,1.065c0.068,0.057,0.139,0.115,0.21,0.169
	c0.12,0.189,0.045,0.398,0.127,0.64c0.049,0.139,0.209,0.27,0.255,0.424c0.029,0.425,0.055,0.851,0.086,1.276
	c0.194,0.11,0.651,0.334,0.723,0.555c0.206,0.646-0.523,1.033-0.68,1.318c-0.06,0.102,0.012,0.247-0.084,0.297h-0.683
	c-0.059-0.048-0.123-0.062-0.213-0.084c-0.09-0.255-0.368-0.335-0.467-0.597c-0.044-0.282-0.088-0.568-0.13-0.85
	c-0.056-0.162-0.205-0.356-0.253-0.554c-0.093-0.364,0.082-0.637-0.043-0.977c-0.029-0.073-0.142-0.183-0.17-0.257
	c-0.013-0.098-0.029-0.198-0.043-0.298c-0.066-0.112-0.262-0.186-0.343-0.296c-0.105-0.157-0.146-0.318-0.294-0.426
	c-0.327-0.238-0.629-0.375-0.98-0.595c-0.108-0.072-0.221-0.239-0.339-0.301c-0.054-0.024-0.417-0.087-0.425,0
	c-0.121-0.145-0.096-0.232-0.298-0.297c-0.34-0.041-0.681-0.083-1.022-0.125c-0.247-0.072-0.553-0.231-0.809-0.297h-0.764
	c-0.632-0.141-1.445-0.148-2.087-0.299c-0.534-0.125-1.37,0.014-1.786,0.083c-0.213,0.039-0.81-0.037-1.018-0.083
	c-0.345-0.08-0.817,0.024-1.108-0.041c-0.311-0.072-0.862-0.014-1.106,0.041c-0.526,0.121-0.898-0.16-1.404-0.083
	c-0.395,0.056-1.004-0.056-1.448,0.042c-0.066,0.014-0.249,0.069-0.382,0.041c-0.591-0.132-1.348-0.025-2-0.171
	c-0.5-0.113-1.018-0.226-1.489-0.34c-0.552-0.132-1.389,0.177-1.829,0.255c-0.171-0.014-0.341-0.029-0.511-0.042
	c-0.254,0.056-0.653,0.071-0.892,0.127c-0.257,0.061-0.661-0.013-0.851-0.042c-0.773-0.119-1.761-0.02-2.381,0.13
	c-1.063-0.015-2.128-0.03-3.191-0.043C41.646,1.96,40.884,2.03,40.215,2.19h-0.979c-0.765,0-1.559,0.017-2.212,0
	c-0.185-0.014-0.37-0.029-0.555-0.042c-0.524,0.113-1.16-0.044-1.743,0.086c-0.435,0.095-1.2,0.25-1.743,0.125
	c-0.304-0.066-0.776-0.126-1.193-0.084c-0.694,0.072-1.6,0.163-2.511,0.169c-0.168,0.015-0.338,0.031-0.508,0.046
	c-0.406-0.081-0.942,0.035-1.49-0.046c-0.074-0.009-0.208-0.071-0.34-0.041c-0.16,0.034-0.497,0.086-0.681,0.128h-0.509
	c-0.087,0.031-0.144,0.18-0.214,0.21c-0.167,0.077-0.647,0.028-0.765,0.045c-0.116,0.018-0.334-0.063-0.426-0.086
	c-0.474-0.11-1.028-0.029-1.446-0.127c-0.511,0.014-1.022,0.029-1.532,0.042c-0.285-0.064-0.68-0.033-1.02-0.126
	C20,2.393,19.537,2.21,19.198,2.104h-0.341c-0.853-0.194-1.619-0.149-2.381,0.044c-0.596,0.15-1.275,0.08-1.828,0.21
	c-0.383,0.015-0.766,0.031-1.149,0.044c-0.332,0.083-0.79,0.124-1.149,0.253c-0.252,0.091-0.504,0.319-0.767,0.427
	c-0.539,0.221-1.212,0.218-1.744,0.425C9.371,3.693,8.91,4.094,8.478,4.318C8.351,4.347,8.222,4.374,8.096,4.401
	C7.94,4.485,7.815,4.693,7.671,4.785c-0.204,0.127-0.446,0.127-0.64,0.256C6.7,5.262,5.747,5.974,5.542,6.274
	C5.459,6.397,5.46,6.542,5.371,6.658C5.108,7.003,4.668,7.265,4.437,7.637c-0.116,0.185-0.281,0.495-0.34,0.68
	C4.023,8.543,4.216,8.748,4.18,8.871C4.158,8.947,3.961,9.065,3.924,9.168c-0.185,0.553,0.061,1.195-0.084,1.744
	c-0.109,0.428-0.235,0.991-0.34,1.405v0.468c-0.024,0.07-0.144,0.183-0.169,0.255c-0.03,0.255-0.057,0.509-0.086,0.766
	c-0.108,0.385-0.284,0.717-0.384,1.147c-0.116,0.494,0.208,0.635,0.298,0.893c0.124,0.357-0.147,0.711-0.212,0.938
	c-0.15,0.531-0.013,1.42-0.086,1.871v0.597c-0.027,0.105-0.141,0.276-0.169,0.382c-0.162,0.578-0.039,1.256-0.171,1.83
	c-0.013,0.48-0.027,0.964-0.042,1.447c-0.136,0.612-0.154,1.397-0.084,2c0.009,0.082-0.072,0.201-0.084,0.256v0.681
	c-0.079,0.282-0.304,0.784-0.213,1.19c0.157,0.7-0.08,1.581,0.084,2.381c0.092,0.448,0,1.062,0,1.662
	c0,0.239,0.062,0.589,0.042,0.762c-0.063,0.651-0.085,1.478-0.21,2c0.013,0.24,0.028,0.483,0.043,0.723
	C2.018,35,1.985,35.519,1.884,35.968c0.013,0.242,0.027,0.482,0.042,0.726c-0.005,0.462-0.034,1.083-0.128,1.49v1.106
	c-0.106,0.431-0.016,1.122-0.126,1.614c-0.26,1.16-0.328,3.14,0,4.427c0.145,0.563,0.042,1.259,0.171,1.786v0.936
	c0.24,0.909,0.147,2.101,0.38,3.02c-0.014,0.299-0.026,0.597-0.042,0.895c0.046,0.532,0.062,1.261-0.042,1.741
	c0.014,0.216,0.028,0.429,0.042,0.641c-0.116,0.545-0.029,2.361,0.129,2.979c0.123,0.482-0.003,1.145,0.084,1.534v0.72
	c0.108,0.493,0.061,1.29-0.042,1.745c-0.08,0.341-0.02,0.96,0.042,1.234c0.076,0.342-0.06,0.972-0.128,1.231
	c-0.07,0.272,0.096,0.649,0.043,0.849c-0.029,0.019-0.058,0.03-0.087,0.047c-0.124,0.374,0.062,0.915,0.087,1.188
	c-0.015,0.286-0.029,0.57-0.043,0.854c0.109,0.472,0.087,1.263,0.212,1.827c0.03,0.137-0.031,0.267-0.043,0.34
	c0.016,0.54,0.028,1.075,0.043,1.616c0.137,0.57,0.11,1.282,0.257,1.918v0.766c0.09,0.34,0.043,0.904,0.168,1.274
	c0.086,0.25,0.234,0.591,0.297,0.894c-0.014,0.201-0.027,0.396-0.042,0.598c0.226,0.929,0.548,1.846,0.937,2.597
	c0.055,0.166,0.112,0.342,0.169,0.508c0.097,0.146,0.794,0.849,0.937,0.935c0.177,0.11,0.35,0.067,0.552,0.172
	c0.771,0.384,1.572,0.909,2.425,1.237c0.256,0.037,0.512,0.081,0.766,0.121c0.598,0.174,1.303,0.363,1.956,0.514
	c0.355,0.08,0.625-0.09,0.895-0.087c0.382,0.009,0.998,0.127,1.318,0.213c0.313-0.012,0.626-0.026,0.936-0.041
	c0.272,0.062,0.587,0.15,0.853,0.213c0.121,0.028,0.286-0.035,0.34-0.041c0.091-0.02,0.724,0.046,0.894,0.082
	c0.561,0.127,1.236,0.214,1.786,0.13c0.159-0.024,0.302,0.192,0.594,0.129c0.251-0.059,0.671,0,0.854,0.04
	c0.736-0.028,1.473-0.055,2.21-0.085c0.301-0.047,0.82,0.105,1.277,0c0.508-0.115,1.035-0.296,1.534-0.427
	c0.36-0.094,0.919,0,1.231-0.041c0.141,0.029,0.285,0.057,0.426,0.083c0.493,0.049,1.061,0.053,1.403-0.042
	c0.398-0.105,0.966,0.039,1.32-0.041c0.937-0.213,1.585,0.369,2.426,0.172c0.559-0.135,1.413-0.069,2.04-0.214h0.426
	c0.14-0.037,0.368-0.145,0.51-0.169c0.085,0.015,0.171,0.025,0.255,0.039c0.498-0.014,0.995-0.024,1.489-0.039
	c0.641-0.141,1.563-0.107,2.212,0.039c0.475,0.109,1.173,0.009,1.489-0.039c0.113-0.019,0.412,0.093,0.596,0.039
	c0.086-0.024,0.188-0.158,0.34-0.127c0.073,0.021,0.214,0.145,0.297,0.171c0.199,0.013,0.398,0.031,0.598,0.043
	c0.141,0.052,0.306,0.213,0.466,0.257c0.162,0.041,0.196-0.067,0.257-0.089c0.035-0.013,1.197,0.062,1.319,0.089
	c1.575,0.362,4.01,0.258,5.613,0.041c0.155-0.021,0.457,0.063,0.681,0.041c0.857-0.076,1.751,0.057,2.467-0.082
	c0.426-0.086,0.94,0.049,1.235,0.125c0.35,0.093,1.06,0,1.532,0c0.671,0,1.231-0.102,1.828-0.084
	c0.748,0.022,1.758,0.077,2.385-0.088c0.101-0.023,1.16-0.015,1.233,0c0.131,0.031,0.339,0.146,0.55,0.088
	c0.324-0.088,0.771-0.258,1.108-0.341h0.765c0.088-0.01,0.16-0.071,0.21-0.083c0.108-0.024,0.719,0.093,0.855,0.126
	c0.399,0.092,0.809-0.066,1.06-0.126c0.214,0.015,0.428,0.025,0.643,0.039c0.287-0.07,0.717-0.177,1.019-0.253h0.47
	c0.242-0.066,0.515-0.271,0.723-0.34c0.155,0.015,0.309,0.027,0.467,0.045c0.049-0.018,0.14-0.115,0.169-0.13
	c0.116-0.017,0.229-0.03,0.341-0.044c0.268-0.098,0.554-0.374,0.806-0.51c0.453-0.243,0.992-0.317,1.406-0.596
	c0.236-0.159,0.423-0.46,0.681-0.599c0.303-0.162,0.586-0.22,0.85-0.424c0.014-0.042,0.027-0.084,0.043-0.126
	c0.127-0.161,0.311-0.252,0.469-0.384c0.055-0.045,0.07-0.162,0.126-0.214c0.14-0.132,0.49-0.292,0.596-0.424
	c0.14-0.174,0.171-0.457,0.34-0.593c0.131-0.113,0.38-0.152,0.466-0.303c0.087-0.144,0.031-0.34,0.128-0.466
	c0.055-0.073,0.204-0.094,0.256-0.171c0.102-0.155,0.17-0.513,0.211-0.685v-0.72c0.053-0.24,0.127-0.458,0.13-0.766V73.58
	c0.321-1.099,0.305-2.802,0.041-3.87v-0.556c-0.112-0.469-0.092-1.062-0.212-1.573c0.013-0.155,0.026-0.31,0.042-0.468
	c-0.083-0.538-0.111-1.302-0.211-1.828c-0.06-0.307,0.099-0.663,0-1.021c-0.051-0.184-0.136-0.521-0.171-0.77
	c-0.025-0.179,0.046-0.607,0-0.809v-0.762c-0.076-0.341-0.208-0.818-0.126-1.236c0.065-0.339-0.07-0.918-0.13-1.319
	c-0.024-0.162,0.096-0.526,0.043-0.765c-0.097-0.447,0.053-0.956-0.043-1.405c-0.006-0.028-0.082-0.215-0.083-0.255
	c-0.014-0.401,0.094-0.946,0.168-1.274c0.024-0.114-0.033-0.256-0.042-0.301c-0.034-0.167,0.059-0.35,0.087-0.465
	c0.032-0.143-0.027-0.351-0.044-0.428c-0.06-0.262,0.035-1.035,0.085-1.274c0.022-0.103-0.033-0.22-0.041-0.259v-0.848
	c-0.046-0.199-0.148-0.596-0.13-0.809c0.041-0.429-0.048-0.814,0-1.361c0.02-0.226,0.053-0.586,0-0.809
	c-0.081-0.353,0.062-0.709,0-0.979c-0.109-0.478,0.009-1.105-0.083-1.486V45.8c-0.036-0.143-0.104-0.435-0.127-0.598
	c0.014-0.083,0.027-0.168,0.042-0.252c-0.057-0.296-0.167-0.58-0.214-0.896c-0.035-0.251,0.076-0.641,0-0.98
	c-0.083-0.377-0.077-0.903-0.171-1.318c0.016-0.23,0.031-0.454,0.044-0.682c-0.018-0.206-0.07-0.45,0-0.678
	c0.024-0.082,0.147-0.198,0.169-0.255c0.205-0.513-0.257-1.085-0.169-1.532c0.127-0.647,0.426-2,0.257-2.766
	c-0.261-1.167,0-2.52-0.257-3.617c-0.13-0.558,0.225-0.991,0.086-1.573c-0.156-0.652-0.329-1.293-0.47-1.958
	c-0.094-0.46,0.249-1.035,0.171-1.446c-0.07-0.372-0.095-0.764-0.21-1.147c-0.043-0.137-0.188-0.326-0.214-0.472
	c0.015-0.139,0.028-0.282,0.041-0.422c-0.015-0.204-0.148-0.438-0.083-0.724c0.061-0.279,0.125-0.504,0.127-0.851
	c1.03-0.709,1.276-2.265,0.81-3.788v-0.511c-0.094-0.381-0.165-0.924-0.257-1.32v-0.677c-0.107-0.45-0.265-0.924-0.384-1.365
	c-0.199-0.728-0.18-1.458-0.552-1.997c-0.167-0.242-0.903-0.887-1.191-0.977c-0.2-0.066-0.373,0.124-0.553,0
	c-0.028-0.059-0.057-0.116-0.085-0.171c-0.114-0.121-0.449-0.371-0.597-0.425c-0.216-0.082-0.386-0.019-0.596-0.085
	c-1.07-0.35-2.153-0.625-3.445-0.342c-0.58,0.129-1.216-0.072-1.7,0.129c-0.488,0.2-0.941,0.572-1.277,0.937
	c-0.292-0.012-0.589-0.185-0.937-0.088c-0.262,0.077-0.67,0.34-1.02,0.298c-0.116-0.01-0.256-0.135-0.342-0.169
	c-0.249-0.102-1.64-0.457-1.958-0.381c-0.273,0.064-0.507,0.001-0.807,0.085c-0.273,0.072-0.68,0.186-1.021,0.255
	c-0.229,0.045-0.32-0.088-0.555-0.088c-0.228,0.003-0.401,0.069-0.678,0c-0.254-0.058-0.539-0.119-0.723-0.251
	c-0.213-0.155-0.143-0.356-0.514-0.383c-0.106,0.066-0.378,0.048-0.553,0.042c-0.122,0.183-0.405,0.486-0.211,0.851
	c0.142,0.275,0.458,0.548,0.595,0.852c0.178,0.4,0.086,0.877,0.211,1.36c0.042,0.164,0.145,0.416,0.171,0.596
	c0.043,0.288-0.196,0.719-0.254,0.98c-0.084,0.376,0.113,1.161,0.212,1.402c0.163,0.07,0.519,0.141,0.596,0.297
	c0.014,0.129,0.03,0.256,0.044,0.385c0.147,0.269,0.781,0.548,1.104,0.637c0.613,0.167,1.217-0.263,1.449,0.299
	c0.203,0.223,0.102,0.677,0.084,1.021c-0.782,0.52-1.184,0.214-1.872-0.085c-0.311-0.136-0.625-0.067-0.937-0.17
	c-0.332-0.107-0.549-0.286-0.979-0.213v0.086c-0.377,0.589,0.42,0.944,0.512,1.233c0.105,0.336-0.103,0.568,0,0.936
	c0.083,0.293,0.328,0.653,0.425,0.935c0.106,0.317,0.033,0.887,0.042,1.278c0.194,0.122,0.383,0.209,0.598,0.341
	c0.167,0.198,0.339,0.395,0.509,0.596c0.224,0.164,0.46,0.252,0.682,0.424c0.234,0.184,0.448,0.539,0.766,0.639
	c0.199-0.016,0.396-0.03,0.596-0.043c0.262,0.08,0.418,0.288,0.764,0.213c0.581-0.128,1.648,0.198,1.875-0.341
	c0.096-0.158,0.129-0.562,0.17-0.724c0.428-0.2,1.032-0.498,1.572-0.552c0.439,0.451,1.369,0.803,1.405,1.617
	c-0.307,0.445-0.412,1.241-1.107,1.276c-0.106-0.075-0.321-0.109-0.468-0.129c-0.322,0.345-0.682,0.649-1.02,0.978
	c-0.382,0.004-0.884-0.014-1.15-0.168c-0.146-0.087-0.288-0.282-0.467-0.34c-0.529-0.171-0.916,0.371-1.317,0.422
	c-0.027,0.006-1.178-0.33-1.319-0.381c-0.268-0.099-0.571-0.388-0.853-0.511c-0.255-0.071-0.511-0.142-0.766-0.21
	c-0.228-0.153-0.243-0.423-0.593-0.469c-0.046,0.034-0.014,0.016-0.088,0.04c-0.157,0.311-0.328,0.624-0.426,1.023v0.681
	c-0.034,0.126-0.174,0.271-0.212,0.385c-0.13,0.395-0.127,0.87-0.211,1.231c0.014,0.255,0.027,0.512,0.04,0.766
	c-0.067,0.334-0.262,1.523-0.125,1.916c0.032,0.091,0.163,0.139,0.21,0.211c0.194,0.295,0.266,0.59,0.469,0.851
	c0.138,0.179,0.387,0.212,0.467,0.469c0.102,0.321-0.104,0.763-0.042,1.107c0.152,0.072,0.393,0.108,0.554,0.212
	c0.29,0.185,0.518,0.572,0.809,0.767C57.371,37.509,57.681,37.5,58,37.63c0.196,0.082,0.471,0.276,0.68,0.34
	c0.345,0.106,1.259-0.246,1.489-0.34c1.013-0.415,2.334-0.931,3.531-0.638c0.149,0.292,0.33,0.437,0.337,0.893
	c-0.068,0.116-0.14,0.227-0.212,0.341c-0.359,0.254-0.882,0.291-0.935,0.85c0.123,0.044,0.327,0.045,0.51,0.044
	c0.224,0.14,0.458-0.042,0.598-0.085c0.281-0.091,0.548,0.009,0.723,0.041c0.143,0.384,0.619,0.289,0.639,0.765
	c-0.035,0.051-0.033,0.072-0.044,0.169c-0.216,0.137-0.382,0.371-0.552,0.556c-0.355-0.003-0.572,0.07-0.807,0.125
	c-0.247,0.06-0.651-0.04-0.855-0.084c-0.783-0.17-1.754,0.008-2.422-0.129c-0.569-0.112-1.442,0.074-1.573,0.426
	c-0.038,0.051-0.035,0.074-0.043,0.17c0.215,0.123,0.737,0.233,0.892,0.428c0.224,0.277,0.162,0.828,0.299,1.19
	c0.272,0.126,0.539,0.254,0.811,0.382c0.125,0.158,0.253,0.313,0.382,0.468c0.284,0.191,0.699,0.27,1.019,0.426
	c0.114,0.055,0.202,0.214,0.342,0.257h0.594c0.383,0.096,0.844,0.156,1.191,0.255c0.142,0.04,0.291-0.017,0.386,0.041
	c0.542,0.167,0.653,1.103,0.508,1.702c-0.333,0.229-0.264,0.307-0.894,0.3c-0.179-0.113-0.44-0.081-0.636-0.173
	c-0.117-0.051-0.204-0.19-0.301-0.255c-0.367-0.243-0.792-0.303-1.23-0.468c-0.1-0.036-0.207-0.176-0.299-0.211
	c-0.211-0.082-0.518-0.123-0.68-0.172h-0.382c-0.096-0.039-0.176-0.198-0.255-0.252c-0.249-0.167-0.611-0.161-0.854-0.34
	c-0.255-0.194-0.103-0.41-0.595-0.426c-0.124,0.168-0.373,0.271-0.467,0.468c-0.096,0.198,0,0.439-0.173,0.551
	c-0.114,0.079-0.32,0.021-0.423,0c-0.099,0.016-0.198,0.031-0.296,0.043c-0.43,0.018-0.773-0.134-0.939-0.382
	c-0.451-0.584,0.42-1.263,0.555-1.574c0.083-0.203-0.002-0.38,0-0.639c-0.494-0.323-0.667-1-1.279-1.19
	c-0.953-0.303-0.84,1.405-0.977,2.041c-0.145,0.666,0.043,1.439,0.383,1.874c0.175,0.223,0.524,0.352,0.682,0.596
	c0.164,0.257,0.17,0.561,0.339,0.807c0.216,0.316,0.64,0.356,0.937,0.597c0.069,0.098,0.143,0.196,0.211,0.298
	c0.105,0.071,0.217,0.017,0.339,0.083c0.074,0.088,0.145,0.171,0.214,0.256c0.588,0.383,1.274,0.517,1.874,0.894
	c0.2,0.126,0.301,0.386,0.551,0.468c0.426,0.042,0.853,0.085,1.274,0.127c0.443,0.163,0.818,0.562,1.193,0.808
	c0.357,0.228,0.82,0.305,1.149,0.553c0.167,0.125,0.302,0.51,0.426,0.595c0.082,0.014,0.169,0.03,0.255,0.042
	c0.118,0.064,0.249,0.253,0.383,0.3h0.765c0.256,0.082,0.481,0.334,0.68,0.468c0.159,0.104,0.896,0.414,1.064,0.468h0.595
	c0.341-0.015,0.682-0.03,1.022-0.042c0.088-0.034,0.177-0.167,0.254-0.214c0.113-0.068,0.2-0.032,0.341-0.084
	c0.193-0.077,0.356-0.261,0.552-0.34c0.28-0.113,0.688-0.008,0.94,0.039c0.213,0.043,0.314-0.051,0.465-0.039
	c0.03,0.084-0.006,0.306,0.043,0.424c0.087,0.211,0.453,0.262,0.341,0.683c-0.146,0.542-0.608,0.722-0.894,1.108
	c-0.171,0.223-0.278,0.564-0.555,0.675c-0.611,0.258-1.434,0.068-2.125,0.258c-0.275,0.075-0.583,0.269-0.853,0.343
	c-0.562,0.15-1.338-0.059-1.915,0.084c-0.149,0.036-0.539,0.144-0.68,0.168c-0.173,0.033-0.52-0.102-0.764-0.041
	c-0.45,0.109-0.885,0.272-1.405,0.38c-0.341,0.074-1.908-0.111-2.172-0.211c-0.068-0.026-0.181-0.144-0.254-0.169
	c-0.225-0.029-0.452-0.058-0.678-0.087c-0.23-0.063-0.668-0.217-1.024-0.124c-0.305,0.075-0.636,0.294-0.891,0.38h-0.683
	c-0.668,0.178-0.802,0.078-1.405-0.086c-0.26-0.069-0.534,0.139-0.594,0.297c-0.195,0.267,0.148,1.165,0.214,1.534
	c0.025,0.151-0.13,0.784-0.172,0.979c-0.014,0.68-0.029,1.36-0.042,2.04c-0.089,0.41,0.028,0.979-0.042,1.447
	c-0.08,0.538-0.041,1.221-0.041,1.832c-0.004,0.372,0.023,0.846-0.046,1.146v0.643c-0.102,0.466-0.146,0.918-0.254,1.398
	c-0.015,0.355-0.029,0.712-0.042,1.068c-0.136,0.547-0.303,1.112-0.426,1.658c-0.028,0.607-0.057,1.216-0.086,1.826
	c-0.077,0.351-0.159,0.759-0.167,1.194c0.126,0.099,0.202,0.293,0.339,0.382c0.191,0.121,1.271,0.38,1.659,0.256
	c0.112-0.036,0.228-0.135,0.382-0.172c0.044-0.281,0.091-0.471,0.341-0.552c0.307-0.232,1.076,0.012,1.404-0.212
	c0.191-0.131,0.514-0.486,0.596-0.726c0.071-0.203,0.02-0.431,0.127-0.595c0.171-0.141,0.342-0.283,0.512-0.427
	c0.184-0.264,0.284-0.497,0.468-0.765c0.228-0.185,0.45-0.369,0.681-0.554h0.211c0.209,0.201,0.474,0.212,0.51,0.594
	c0.062,0.089,0.028,0.478-0.041,0.725c-0.153,0.542-0.32,1.249-0.172,1.876c0.299,0.175,0.61,0.382,0.895,0.593
	c0.398,0.296,0.559,0.821,1.063,1.021c0.533,0.214,0.808-0.337,1.402-0.211c0.605,0.127,1.379,0.074,2.001,0
	c0.081-0.009,0.241,0.071,0.298,0.085c0.444,0.103,1.082,0.036,1.489,0.042c0.16,0.198,0.223,0.232,0.214,0.642
	c0.035,0.043,0.016,0.011,0.043,0.082c0.536,0.268,0.905,0.714,1.319,1.109v0.508c-0.676,0.429-0.148,0.653,0,1.104v0.472
	c0.061,0.243,0.137,0.455,0.085,0.766c-0.216,0.07-0.359,0.243-0.596,0.296c-0.261,0.058-0.571-0.114-0.766-0.17
	c-0.186-0.015-0.368-0.03-0.553-0.042c-0.31-0.096-0.677-0.215-1.062-0.297c-0.457-0.101-1.625-0.129-2.043-0.045
	c-0.27,0.06-0.741-0.034-0.979-0.083c-0.552,0.027-1.107,0.055-1.658,0.083c-0.162,0.272-0.589,0.758-1.104,0.642
	c-0.236-0.054-0.538-0.207-0.894-0.132c-0.642,0.144-1.333,0.218-2.089,0.215c-0.091,0.146-0.221,0.259-0.336,0.38
	c-0.412-0.031-0.709-0.043-1.023-0.255c-0.072-0.045-0.121-0.176-0.213-0.208c-0.204-0.073-0.42,0.057-0.51,0.083
	c-0.226,0.059-0.393-0.096-0.555-0.127c-0.139,0.027-0.282,0.056-0.422,0.086c-0.209-0.03-0.43-0.224-0.598-0.3
	c-0.666-0.296-1.441-0.539-1.618-1.318c-0.094-0.42,0.205-1.355,0.341-1.617c0.047-0.09,0.182-0.193,0.213-0.301
	c0.094-0.288-0.135-0.688-0.213-0.891c-0.172-0.06-0.482-0.042-0.723-0.039c-0.184,0.148-0.364,0.131-0.638,0.209
	c-1.566,0.458-2.557-0.771-3.66-1.148c-0.718-0.246-1.192,0.315-1.785,0.171c-0.692-0.167-1.035-0.519-1.658-0.726
	c-0.586-0.19-1.347,0.068-1.829-0.297c-0.073-0.096-0.143-0.197-0.214-0.297c-0.101-0.059-0.209-0.016-0.298-0.083
	c-0.062-0.051-0.213-0.277-0.254-0.341c-0.042-0.129-0.086-0.258-0.126-0.385c-0.146-0.193-0.572-0.369-0.726-0.554
	c-0.115-0.139-0.099-0.362-0.21-0.513c-0.088-0.11-0.654-0.4-0.811-0.508c-0.113-0.142-0.227-0.283-0.341-0.427
	c-0.204-0.128-0.821-0.212-1.146-0.214c-0.215,0.211-0.488,0.373-0.725,0.557c-0.138,0.105-0.151,0.318-0.298,0.423
	c-0.237,0.172-1.136,0.009-1.532,0.127c-0.3,0.096-0.73,0.253-1.063,0.342H35.11c-0.268,0.043-0.539,0.086-0.809,0.131
	c-0.208,0.06-0.477,0.2-0.723,0.256c-0.147,0.028-0.238-0.036-0.34-0.048c-0.199,0.018-0.397,0.032-0.595,0.048
	c-0.173-0.036-0.483-0.058-0.722-0.048c-0.421,0.026-1.729,0.232-2.001,0.086c-0.28-0.096-0.484-0.404-0.723-0.552
	c-0.22-0.139-0.625-0.153-0.894-0.215c-0.666-0.145-1.513,0.059-2.001,0.173c-0.471,0.109-2.231-0.238-2.509-0.385
	c-0.794-0.41-1.731-0.897-2.424-1.444c-0.409-0.325-0.836-0.856-1.148-1.277c-0.114-0.155-0.235-0.396-0.384-0.51
	c-0.172-0.133-1.142-0.534-1.361-0.598c-0.578-0.157-1.431-0.102-2-0.083h-1.191c-0.271,0.064-0.673,0.125-1.021,0.043
	c-0.287-0.067-0.689-0.095-0.978-0.213c-0.217-0.089-0.421-0.271-0.64-0.342c-0.413-0.138-0.851-0.035-1.19-0.212
	c-0.093-0.049-0.169-0.206-0.253-0.253c-0.255-0.147-0.467-0.181-0.684-0.342c-0.107-0.079-0.166-0.241-0.296-0.298
	c-0.317-0.143-0.877-0.151-1.193-0.215c-0.464-0.086-1.266,0.486-1.702,0.597c-0.204,0.053-0.414-0.058-0.553-0.084
	c-0.141,0.016-0.283,0.028-0.425,0.043c-0.15-0.039-0.4-0.097-0.596-0.171c-0.42-0.158-0.786-0.523-1.232-0.638
	c-0.794-0.2-1.087,0.337-1.83,0.17c-0.107-0.163-0.198-0.195-0.214-0.469c0.052-0.084-0.01-0.264,0.042-0.385
	c0.073-0.156,0.377-0.617,0.555-0.674c0.476-0.347,1.333-0.213,1.997-0.388c0.455-0.117,0.821-0.36,1.244-0.549
	c0.108-0.045,0.435-0.212,0.556-0.25c0.485-0.158,1.003-0.022,1.265-0.393c0.19-0.253-0.063-0.468,0-0.722
	c0.055-0.235,0.313-1.064,0.468-1.192c0.528-0.444,1.522-0.305,2.211-0.596c0.485-0.206,1.098-0.485,1.574-0.681
	c0.411-0.169,0.822-0.184,1.235-0.341c0.263-0.098,0.539-0.294,0.85-0.34c0.123-0.02,0.186,0.065,0.255,0.084h0.681
	c0.131,0.036,0.256,0.171,0.467,0.127c0.513-0.097,1.078-0.041,1.66-0.171h0.723c1.018-0.25,2.269-0.266,3.277-0.551
	c1.145-0.325,2.523-0.604,3.616-0.935c0.505-0.156,1.068-0.07,1.531-0.255c0.581-0.236,1.144-0.589,1.66-0.894
	c0.23-0.138,0.457-0.161,0.68-0.302c0.169-0.103,0.41-0.302,0.595-0.382c0.145-0.06,0.638-0.135,0.765-0.17h0.555
	c0.516-0.139,1.166-0.362,1.743-0.512c0.426-0.026,0.85-0.053,1.277-0.085c0.718-0.198,1.061-0.842,1.874-1.021
	c0.569-0.124,0.71,0.556,1.233,0.425c0.16-0.04,0.36-0.188,0.51-0.253c0.233-0.096,0.466-0.07,0.724-0.172
	c0.295-0.119,0.621-0.402,0.934-0.551c0.157-0.078,0.286-0.024,0.467-0.087c0.538-0.184,1.073-0.466,1.66-0.594
	c0.143,0.012,0.284,0.027,0.427,0.042c0.455-0.101,1-0.239,1.402-0.341c0.396-0.1,0.563,0.234,0.767,0.341
	c0.223,0.119,0.483,0.086,0.724,0.213c0.156,0.083,0.366,0.263,0.552,0.339c0.142,0.029,0.283,0.057,0.425,0.087
	c0.149,0.062,0.258,0.246,0.425,0.294c0.557,0.166,0.956-0.221,1.277-0.337c0.236-0.088,0.498-0.158,0.679-0.212h0.765
	c0.244-0.098,0.396-0.289,0.767-0.341c0.569,0.606,1.094,0.11,1.66-0.085c0.249-0.086,0.501-0.082,0.725-0.215
	c0.345-0.2,0.372-0.52,0.596-0.848c0.084-0.07,0.168-0.144,0.253-0.213c0.014-0.085,0.029-0.171,0.044-0.255
	c0.068-0.058,0.141-0.116,0.212-0.17c0.152-0.232,0.135-0.453,0.215-0.765c0.057-0.247,0.274-0.73,0.167-1.068
	c-0.05-0.154-0.149-0.175-0.167-0.422c0.224-0.149,0.153-0.208,0.253-0.51c0.235-0.712,0.121-0.739-0.17-1.319
	c-0.06-0.116-0.022-0.236-0.083-0.341c-0.395-0.663-1.106-1.08-1.874-1.362c-0.198-0.027-0.396-0.054-0.596-0.083
	c-0.598-0.224-0.797-0.792-1.275-1.108c-0.186-0.118-0.486-0.103-0.64-0.254c-0.4-0.402-0.397-1.57-0.978-1.788
	c-0.161-0.098-0.992-0.034-1.317-0.125c-0.45-0.13-0.555-0.581-1.107-0.598c-0.319,0.333-0.742,0.609-1.02,0.98
	c-0.111,0.144-0.196,0.358-0.341,0.467c-0.11,0.08-0.214,0.056-0.339,0.127c-0.208,0.12-0.322,0.41-0.512,0.555
	c-0.213,0.159-0.52,0.298-0.679,0.507c-0.243,0.316-0.753,1.148-1.066,1.319c-0.167,0.094-0.404,0.03-0.553,0.127
	c-0.268,0.18-0.267,0.554-0.679,0.596c-0.323-0.305-0.614-0.632-0.935-0.937c0.021-0.708,0.521-0.835,0.935-1.148
	c0.53-0.398,0.866-1.033,1.445-1.404c0.349-0.219,0.875-0.228,0.938-0.722c-0.584,0.007-0.925,0.356-1.32,0.553
	c-0.308,0.154-0.643,0.086-0.979,0.212c-0.259,0.096-0.589,0.263-0.892,0.341c-0.359,0.092-1.988-0.23-2.211-0.341
	c-0.205-0.102-0.557-0.465-0.853-0.425c-0.916,0.125-1.438,0.842-2.297,0.979c-0.239,0.038-0.439-0.19-0.597-0.257
	c-0.485-0.206-0.943-0.389-1.446-0.593c-0.361-0.149-0.838-0.079-1.233-0.215c-0.464-0.159-0.902-0.475-1.318-0.637
	c-0.242-0.096-0.581-0.096-0.765-0.257c-0.099-0.083-0.159-0.247-0.255-0.337c-0.134-0.132-0.318-0.189-0.469-0.298
	c-0.185-0.138-0.317-0.375-0.511-0.511c-0.363-0.256-1.001-0.422-1.277-0.766c-0.186-0.268-0.037-0.681-0.467-0.723
	c-0.189-0.113-0.481,0.073-0.764,0c-0.129-0.034-0.429-0.142-0.555-0.171c-0.112-0.025-1.497,0.244-1.617,0.298
	c-0.149,0.07-0.295,0.255-0.423,0.34c-0.279,0.181-0.628,0.155-0.81,0.425c-0.053,0.078-0.148,0.271-0.17,0.341v0.511
	c-0.048,0.091-0.458,0.295-0.553,0.422c-0.34,0.467-0.695,0.967-1.106,1.363c-0.223,0.217-0.539,0.3-0.724,0.554
	c-0.403,0.553-0.698,1.196-1.106,1.743c-0.361,0.486-0.941,0.845-1.362,1.278c-0.342,0.351-0.687,1.428-1.064,1.658
	c-0.274,0.17-0.908,0.028-1.191,0.212c-0.188,0.125-0.725,0.599-0.808,0.81c-0.079,0.199-0.021,0.399-0.128,0.554
	c-0.229,0.329-0.653,0.384-1.062,0.55c-0.237,0.098-0.457,0.242-0.767,0.172c-0.443-0.101-0.961-0.128-1.106-0.511
	c-0.252-0.297,0.125-1.215,0.341-1.361c0.58-0.397,1.423-0.447,1.957-0.892c0.227-0.188,0.385-0.827,0.553-1.106
	c0.114-0.085,0.228-0.171,0.341-0.257c0.45-0.627,0.508-0.4,1.36-0.55c0.221-0.459,0.448-0.332,0.81-0.6
	c0.349-0.258,0.498-0.772,0.85-1.021c0.149-0.1,0.393-0.064,0.553-0.169c0.166-0.105,0.696-0.975,0.851-1.19
	c0.594-0.825,1.369-1.509,1.915-2.383c0.15-0.243,0.295-0.589,0.383-0.851c0.015-0.128,0.029-0.255,0.043-0.384
	c0.169-0.185,0.34-0.37,0.509-0.553c0.252-0.472,0.149-0.752,0.681-0.979c0.166-0.07,0.278-0.029,0.469-0.084
	c0.339-0.101,0.833-0.316,1.191-0.384c0.142,0.015,0.284,0.028,0.426,0.043c0.066-0.021,0.157-0.143,0.212-0.17
	c0.499-0.252,1.321-0.355,1.872-0.127c0.202,0.084,0.337,0.28,0.509,0.383c0.299,0.179,0.838,0.286,0.937,0.638
	c0.073,0.255-0.193,0.398-0.214,0.681c0.051,0.046,0.072,0.085,0.129,0.128c0.128,0.097,0.496,0.2,0.678,0.212
	c0.099-0.015,0.202-0.027,0.299-0.042c0.417,0.089,0.708,0.435,1.064,0.554c0.32,0.106,0.609-0.021,0.851,0.127
	c0.386,0.234,0.458,0.517,0.682,0.937c0.158,0.301,0.914,1.124,1.191,1.317c0.405,0.291,1.154,0.331,1.744,0.426
	c0.269-0.015,0.54-0.029,0.806-0.041c0.257,0.061,0.614,0.279,1.021,0.17c0.34-0.092,0.828-0.243,1.192-0.386
	c0.162-0.059,0.347-0.24,0.51-0.295c0.565-0.196,1.077,0.058,1.533,0.17c0.51,0.125,0.953-0.197,1.234-0.344
	c0.217-0.108,0.456-0.1,0.55-0.34c0.045-0.064,0.045-0.17,0.043-0.295c-0.438,0.006-0.629,0.208-0.979,0.295
	c-0.407,0.108-0.787-0.085-1.19,0c-0.444,0.097-1.035,0.134-1.446,0.045c-0.029-0.045-0.057-0.085-0.083-0.127
	c-0.128-0.158-0.066-0.375-0.045-0.596c0.251-0.189,0.383-0.48,0.724-0.598c0.318-0.107,0.664-0.062,0.937-0.168
	c0.087-0.307,0.042-0.403,0.466-0.383c0.188-0.113,0.541,0.063,0.726,0.085c0.381,0.028,0.764,0.055,1.146,0.085
	c0.437,0.112,0.837,0.319,1.363,0.34c0.014-0.042,0.029-0.086,0.042-0.127c0.142-0.307-0.277-0.749,0.254-1.106
	c0.15-0.11,0.323-0.031,0.554-0.086c1.272-0.301,1.681,0.839,2.894,0.511c1.45-0.393,3.218-0.55,4.635-0.979
	c0.359-0.108,0.763-0.091,1.065-0.213c0.099-0.169,0.276-0.41,0.341-0.596c0.014-0.155,0.026-0.312,0.042-0.468
	c0.036-0.101,0.162-0.177,0.212-0.256c0.25-0.387,0.436-0.805,0.468-1.403c-0.183-0.19-0.315-0.513-0.554-0.635
	c-0.753-0.385-1.871,0.359-2.425,0.595c-0.255,0.069-0.51,0.141-0.766,0.211c-0.201,0.117-0.328,0.407-0.511,0.51
	c-0.243,0.138-0.671-0.042-0.977,0.043c-0.515,0.142-0.991,0.416-1.573,0.553c-0.644,0.153-1.736-0.707-2.297-0.852
	c-0.325-0.083-0.717,0.093-0.978,0.043c-0.097-0.018-0.241-0.116-0.385-0.085c-0.155,0.034-0.283,0.109-0.423,0.085
	c-0.399-0.068-1.197,0.073-1.576,0.128c-0.34,0.049-0.686-0.241-1.106-0.084c-0.322,0.117-0.788,0.804-1.234,0.509
	c-0.163-0.053-0.605-0.532-0.637-0.721c-0.03-0.057,0.017-0.139,0.043-0.257c0.106-0.068,0.214-0.216,0.339-0.256
	c0.322-0.1,0.668,0.099,1.021,0c0.097-0.027,0.244-0.152,0.339-0.168c0.276-0.052,0.714,0.168,1.108,0.083
	c0.222-0.047,0.67,0.043,0.936-0.041c1.106-0.342,2.546-0.148,3.661,0.084c0.579,0.121,0.552-0.373,1.105-0.38
	c0.117,0.074,1.204,0.198,1.447,0.126c0.298-0.094,0.45-0.476,0.722-0.598c0.169-0.027,0.338-0.055,0.512-0.084
	c0.582-0.195,1.038-0.442,1.486-0.765c0.257-0.186,0.222-0.652,0.468-0.854c0.167-0.121,0.765-0.33,0.979-0.381
	c0.101-0.211,0.269-0.381,0.341-0.596c0.402-1.205,0.046-3.593-0.17-4.679c0.014-0.128,0.028-0.257,0.043-0.383
	c0.008-0.346-0.073-0.602-0.043-0.895c0.025-0.257,0.147-0.485,0.085-0.808c-0.074-0.025-0.136-0.036-0.256-0.042
	c-0.173,0.137-0.458,0.169-0.596,0.34c-0.173,0.215-0.285,0.65-0.508,0.807c-0.284,0.204-0.566,0.321-0.767,0.597
	c-0.175,0.237-0.297,0.438-0.469,0.679c-0.158,0.128-0.312,0.257-0.467,0.385c-0.069,0.088-0.085,0.192-0.172,0.252
	c-0.185,0.143-0.444,0.252-0.594,0.429c-0.19,0.222-0.365,0.548-0.595,0.721c-0.348,0.26-0.782,0.319-1.062,0.638
	c-0.111,0.125-0.167,0.333-0.3,0.426c-0.151,0.107-0.319,0.11-0.425,0.255c-0.241,0.326-0.785,1.04-1.107,1.232
	c-0.195,0.118-1.516,0.309-1.704,0.298c-0.143-0.174-0.38-0.189-0.466-0.425c-0.229-0.387,0.29-0.934,0.426-1.149
	c0.027-0.087,0.055-0.171,0.084-0.256c0.153-0.222,0.974-0.637,1.276-0.722H44.3c0.304-0.102,0.358-0.479,0.552-0.595
	c0.126-0.072,0.227,0.056,0.429,0c0.224-0.06,0.418-0.251,0.594-0.381c0.987-0.746,1.764-1.742,2.678-2.553
	c0.181-0.161,0.398-0.239,0.595-0.383c0.604-0.438,1.646-2.085,1.958-2.852c0.27-0.66,0.026-1.48,0.214-2.256
	c0.269-1.105,0.23-2.042,0-3.147c-0.045-0.014-0.086-0.027-0.128-0.044c-0.328-0.171-0.589,0.702-0.892,0.811h-0.471
	c-0.159,0.043-0.482,0.119-0.637,0.214c-0.046,0.024-0.123,0.148-0.17,0.167c-0.333,0.145-0.67,0.121-0.979,0.299
	c-0.237,0.138-0.421,0.433-0.636,0.594c-0.25,0.188-0.582,0.359-0.851,0.512c-0.27,0.151-0.977,0.318-1.275,0.127
	c-0.491-0.182-0.702-1.298-0.215-1.574c0.248-0.14,0.485-0.051,0.809-0.125c0.384-0.095,0.749-0.196,1.146-0.344
	c0.508-0.182,0.935-0.685,1.404-0.891c0.442-0.195,1.03-0.275,1.192-0.722c0.149-0.316-0.441-0.426-0.638-0.553
	c-0.115-0.079-0.089-0.182-0.172-0.3c-0.105-0.153-0.602-0.449-0.892-0.381c-0.532,0.12-1.066,0.403-1.616,0.55
	c-0.321,0.088-0.72-0.094-0.977-0.041c-0.233,0.047-0.923,0.248-1.361,0.128c-0.182-0.052-0.357-0.207-0.555-0.257
	c-0.413-0.102-0.894,0.136-1.191,0.214c-0.512,0.137-0.816-0.156-1.317-0.045c-0.469,0.107-0.993,0.195-1.447,0.299
	c-0.637,0.149-1.492-0.007-2.043-0.127c-0.291-0.064-0.517,0.093-0.723,0.127c-0.084-0.013-0.17-0.028-0.255-0.042
	c-0.507,0.114-0.773,0.526-1.234,0.684c-0.375,0.123-0.71,0.089-1.105,0.211c-0.369,0.127-0.737,0.254-1.104,0.381
	c-0.408,0.117-0.851,0.04-1.063,0.341c-0.092,0.11-0.092,0.296-0.087,0.509c0.561,0.417,0.627,1.471,0.213,2.085
	c-0.198,0.293-0.606,0.416-0.765,0.766c-0.014,0.142-0.03,0.284-0.044,0.425c-0.112,0.368-0.28,0.888-0.383,1.237
	c-0.091,0.307-0.025,0.459-0.171,0.678c-0.707,1.086-1.783,1.867-2.807,2.639c-0.382,0.286-0.572,0.836-1.021,1.064
	c-0.185,0.027-0.369,0.054-0.554,0.085c-0.139,0.051-0.331,0.167-0.509,0.213h-1.021c-0.49,0.127-1.171,0.127-1.79,0.127
	c-0.183-0.015-0.367-0.029-0.549-0.043c-0.287,0.049-0.615-0.066-0.937,0c-0.866,0.183-2.786,0.028-3.532-0.297
	c-0.093-0.042-0.161-0.172-0.256-0.213c-0.362-0.164-0.837-0.252-1.233-0.213"/>
<g>
	<g>
		<path d="M80.61,16.675v-4.501h4.371V6.037h5.297v6.137h5.827v4.501h-5.827v9.271c0,2.118,0.618,3.443,2.957,3.443
			c0.928,0,2.207-0.176,2.871-0.663v4.458c-1.103,0.531-2.958,0.706-4.194,0.706c-5.607,0-6.93-2.513-6.93-7.503v-9.712H80.61z"/>
		<path d="M105.554,15.13h0.086c0.84-1.765,2.958-3.486,6.225-3.486c5.694,0,7.725,4.018,7.725,8.344v13.375h-5.297V22.636
			c0-2.338-0.176-6.225-3.883-6.225c-3.487,0-4.855,2.559-4.855,5.386v11.565h-5.299V-0.01h5.299V15.13z"/>
		<path d="M127.625,24.623c0.352,3.133,2.736,5.031,5.692,5.031c2.651,0,4.372-1.235,5.697-2.869l3.795,2.869
			c-2.471,3.046-5.606,4.237-8.959,4.237c-6.402,0-11.521-4.457-11.521-11.121c0-6.667,5.12-11.126,11.521-11.126
			c5.915,0,9.93,4.149,9.93,11.521v1.457H127.625z M138.484,20.648c-0.044-3.089-2.074-5.03-5.387-5.03
			c-3.133,0-5.075,1.985-5.472,5.03H138.484z"/>
		<path d="M161.615,24.623c0.354,3.133,2.736,5.031,5.695,5.031c2.648,0,4.368-1.235,5.692-2.869l3.798,2.869
			c-2.473,3.046-5.607,4.237-8.961,4.237c-6.4,0-11.522-4.457-11.522-11.121c0-6.667,5.122-11.126,11.522-11.126
			c5.916,0,9.93,4.149,9.93,11.521v1.457H161.615z M172.473,20.648c-0.042-3.089-2.073-5.03-5.383-5.03
			c-3.136,0-5.077,1.985-5.475,5.03H172.473z"/>
		<path d="M177.64,12.174h5.782l5.651,14.833h0.088l5.694-14.833h5.432l-8.347,21.189h-5.647L177.64,12.174z"/>
		<path d="M205.407,24.623c0.353,3.133,2.74,5.031,5.693,5.031c2.651,0,4.372-1.235,5.698-2.869l3.795,2.869
			c-2.471,3.046-5.607,4.237-8.963,4.237c-6.399,0-11.521-4.457-11.521-11.121c0-6.667,5.122-11.126,11.521-11.126
			c5.917,0,9.933,4.149,9.933,11.521v1.457H205.407z M216.269,20.648c-0.047-3.089-2.076-5.03-5.389-5.03
			c-3.132,0-5.076,1.985-5.473,5.03H216.269z"/>
		<path d="M224.964,12.174h5.297v3.354h0.089c1.146-2.428,3.488-3.883,6.269-3.883c0.663,0,1.28,0.134,1.896,0.308v5.122
			c-0.883-0.222-1.719-0.398-2.56-0.398c-4.988,0-5.694,4.195-5.694,5.342v11.345h-5.297V12.174z"/>
		<path d="M262.573,12.174v19.291c0,7.637-3.709,12.495-11.962,12.495c-3.929,0-7.502-0.841-10.506-3.488l3.178-4.327
			c2.121,1.942,4.326,3.045,7.282,3.045c5.123,0,6.715-2.913,6.715-7.107v-1.545h-0.089c-1.546,2.075-4.284,3.091-6.935,3.091
			c-6.356,0-10.546-4.857-10.546-10.859c0-6.271,3.93-11.126,10.457-11.126c2.955,0,5.74,1.147,7.283,3.707h0.091v-3.177H262.573z
			 M245.006,22.725c0,3.354,2.648,6.135,6.224,6.135c3.928,0,6.312-2.691,6.312-6.224c0-3.666-2.428-6.225-6.269-6.225
			C247.566,16.411,245.006,18.97,245.006,22.725z"/>
		<path d="M265.889,12.174h5.292v3.354h0.094c1.145-2.428,3.484-3.883,6.269-3.883c0.661,0,1.275,0.134,1.896,0.308v5.122
			c-0.883-0.222-1.724-0.398-2.562-0.398c-4.986,0-5.696,4.195-5.696,5.342v11.345h-5.292V12.174z"/>
		<path d="M285.974,24.623c0.351,3.133,2.738,5.031,5.691,5.031c2.647,0,4.37-1.235,5.694-2.869l3.798,2.869
			c-2.474,3.046-5.605,4.237-8.964,4.237c-6.396,0-11.518-4.457-11.518-11.121c0-6.667,5.122-11.126,11.518-11.126
			c5.917,0,9.937,4.149,9.937,11.521v1.457H285.974z M296.832,20.648c-0.046-3.089-2.077-5.03-5.387-5.03
			c-3.133,0-5.075,1.985-5.472,5.03H296.832z"/>
		<path d="M309.988,24.623c0.348,3.133,2.732,5.031,5.691,5.031c2.648,0,4.371-1.235,5.691-2.869l3.8,2.869
			c-2.474,3.046-5.604,4.237-8.962,4.237c-6.398,0-11.521-4.457-11.521-11.121c0-6.667,5.123-11.126,11.521-11.126
			c5.914,0,9.932,4.149,9.932,11.521v1.457H309.988z M320.844,20.648c-0.043-3.089-2.072-5.03-5.385-5.03
			c-3.135,0-5.076,1.985-5.471,5.03H320.844z"/>
		<path d="M329.41,12.174h5.029v3.4h0.092c0.97-2.119,2.957-3.93,6.487-3.93c5.697,0,7.729,4.018,7.729,8.344v13.375h-5.3V22.636
			c0-2.338-0.177-6.225-3.885-6.225c-3.485,0-4.855,2.559-4.855,5.386v11.565h-5.297V12.174z"/>
	</g>
	<g>
		<path d="M118.188,57.851c-1.016-1.412-2.34-2.162-4.149-2.162c-1.413,0-3.09,0.662-3.09,2.251c0,3.799,11.433,0.707,11.433,8.96
			c0,5.034-4.813,6.801-9.139,6.801c-3.267,0-6.089-0.839-8.253-3.27l3.53-3.309c1.368,1.5,2.781,2.605,5.032,2.605
			c1.546,0,3.533-0.752,3.533-2.429c0-4.369-11.434-0.928-11.434-9.006c0-4.724,4.237-6.842,8.52-6.842
			c2.827,0,5.826,0.883,7.548,3.22L118.188,57.851z"/>
		<path d="M124.015,56.484v-4.505h4.37v-6.133h5.298v6.133h5.827v4.505h-5.827v9.271c0,2.116,0.616,3.443,2.958,3.443
			c0.927,0,2.207-0.181,2.87-0.664v4.461c-1.104,0.529-2.959,0.706-4.195,0.706c-5.606,0-6.93-2.518-6.93-7.505v-9.712H124.015z"/>
		<path d="M156.901,70.257h-0.131c-1.502,2.386-3.974,3.443-6.799,3.443c-3.929,0-7.725-2.164-7.725-6.356
			c0-6.886,8.034-7.373,13.332-7.373h1.323v-0.574c0-2.604-2.029-3.975-4.855-3.975c-2.208,0-4.239,0.887-5.651,2.209l-2.78-2.779
			c2.339-2.385,5.648-3.4,9.004-3.4c9.048,0,9.048,6.534,9.048,9.534v12.186h-4.767V70.257z M156.592,63.678h-1.102
			c-2.915,0-7.947,0.223-7.947,3.27c0,1.941,1.986,2.78,3.708,2.78c3.62,0,5.34-1.9,5.34-4.857V63.678z"/>
		<path d="M164.451,56.484v-4.505h4.371v-6.133h5.296v6.133h5.825v4.505h-5.825v9.271c0,2.116,0.619,3.443,2.959,3.443
			c0.925,0,2.204-0.181,2.866-0.664v4.461c-1.104,0.529-2.957,0.706-4.189,0.706c-5.609,0-6.932-2.518-6.932-7.505v-9.712H164.451z"
			/>
		<path d="M188.334,64.429c0.352,3.132,2.737,5.032,5.694,5.032c2.646,0,4.37-1.234,5.694-2.869l3.794,2.869
			c-2.471,3.048-5.604,4.239-8.958,4.239c-6.401,0-11.524-4.46-11.524-11.125c0-6.666,5.123-11.124,11.524-11.124
			c5.911,0,9.931,4.15,9.931,11.522v1.455H188.334z M199.192,60.458c-0.044-3.094-2.076-5.036-5.386-5.036
			c-3.133,0-5.078,1.988-5.473,5.036H199.192z"/>
		<path d="M234.772,58.338c-1.234-1.279-2.604-2.118-4.016-2.118c-3.886,0-6.226,3.044-6.226,6.355c0,3.31,2.34,6.356,6.226,6.356
			c1.634,0,3.134-0.705,4.106-1.984l3.53,3.794c-2.162,2.162-5.783,2.959-7.637,2.959c-6.4,0-11.519-4.46-11.519-11.125
			c0-6.666,5.118-11.124,11.519-11.124c2.692,0,5.65,0.971,7.682,3.22L234.772,58.338z"/>
		<path d="M251.591,51.452c6.402,0,11.526,4.458,11.526,11.124c0,6.665-5.124,11.125-11.526,11.125
			c-6.398,0-11.52-4.46-11.52-11.125C240.071,55.91,245.192,51.452,251.591,51.452z M251.591,68.932
			c3.887,0,6.227-3.047,6.227-6.356c0-3.312-2.34-6.355-6.227-6.355c-3.884,0-6.222,3.044-6.222,6.355
			C245.369,65.885,247.707,68.932,251.591,68.932z"/>
		<path d="M266.028,39.797h5.297v33.375h-5.297V39.797z"/>
		<path d="M277.327,39.797h5.299v33.375h-5.299V39.797z"/>
		<path d="M291.365,64.429c0.354,3.132,2.738,5.032,5.697,5.032c2.648,0,4.367-1.234,5.692-2.869l3.8,2.869
			c-2.471,3.048-5.607,4.239-8.964,4.239c-6.401,0-11.52-4.46-11.52-11.125c0-6.666,5.118-11.124,11.52-11.124
			c5.916,0,9.933,4.15,9.933,11.522v1.455H291.365z M302.224,60.458c-0.042-3.094-2.074-5.036-5.384-5.036
			c-3.136,0-5.075,1.988-5.475,5.036H302.224z"/>
		<g>
			<path d="M332.82,51.979v19.292c0,7.64-3.71,12.493-11.969,12.493c-3.926,0-7.498-0.839-10.504-3.485l3.18-4.325
				c2.119,1.942,4.326,3.044,7.279,3.044c5.121,0,6.714-2.913,6.714-7.11v-1.541h-0.086c-1.548,2.074-4.284,3.09-6.933,3.09
				c-6.355,0-10.549-4.858-10.549-10.86c0-6.267,3.926-11.124,10.463-11.124c2.953,0,5.734,1.147,7.283,3.708h0.087v-3.181H332.82z
				 M315.248,62.532c0,3.354,2.648,6.136,6.223,6.136c3.932,0,6.315-2.693,6.315-6.224c0-3.666-2.43-6.224-6.269-6.224
				C317.812,56.22,315.248,58.778,315.248,62.532z"/>
		</g>
		<path d="M340.94,64.429c0.354,3.132,2.736,5.032,5.694,5.032c2.649,0,4.371-1.234,5.693-2.869l3.801,2.869
			c-2.474,3.048-5.608,4.239-8.963,4.239c-6.401,0-11.518-4.46-11.518-11.125c0-6.666,5.116-11.124,11.518-11.124
			c5.914,0,9.934,4.15,9.934,11.522v1.455H340.94z M351.799,60.458c-0.042-3.094-2.074-5.036-5.387-5.036
			c-3.133,0-5.072,1.988-5.472,5.036H351.799z"/>
	</g>
</g>
</svg>
